<svg id="svg" version="1.1" xmlns="http://www.w3.org/2000/svg" xmlns:xlink="http://www.w3.org/1999/xlink" width="400" height="354.66666666666663" viewBox="0, 0, 400,354.66666666666663"><g id="svgg"><path id="path0" d="M266.575 2.148 C 247.777 7.920,249.564 14.985,276.667 42.029 C 300.351 65.662,305.612 67.012,313.394 51.457 C 315.963 46.324,316.049 26.603,313.517 23.553 C 309.096 18.229,325.412 19.327,331.905 24.791 C 338.832 30.620,339.025 32.641,339.185 101.248 L 339.333 164.667 349.667 164.946 L 360.000 165.226 360.000 100.065 C 360.000 21.659,360.130 22.471,345.354 8.475 C 342.799 6.055,339.056 3.712,337.036 3.268 C 335.016 2.824,333.022 1.908,332.603 1.231 C 331.017 -1.336,308.267 -0.190,302.512 2.746 C 299.068 4.503,296.567 5.052,295.565 4.271 C 290.413 0.256,276.143 -0.790,266.575 2.148 M238.758 30.059 C 232.118 32.984,230.964 34.288,231.683 38.049 C 232.777 43.771,236.384 44.526,244.056 40.638 C 256.314 34.427,251.349 24.513,238.758 30.059 M214.343 43.359 C 205.695 49.235,204.768 57.333,212.742 57.333 C 221.832 57.333,229.689 47.212,224.571 42.095 C 221.720 39.243,220.106 39.443,214.343 43.359 M251.637 50.764 C 246.530 54.974,245.252 59.385,248.267 62.400 C 253.200 67.333,267.346 55.585,264.000 49.333 C 261.954 45.510,257.367 46.041,251.637 50.764 M191.488 64.004 C 185.992 70.088,185.923 70.345,188.742 74.370 C 191.749 78.663,194.315 78.055,200.154 71.667 C 205.553 65.761,206.431 62.964,203.733 60.267 C 200.722 57.255,196.392 58.576,191.488 64.004 M276.602 62.354 C 270.143 66.881,267.398 77.537,272.050 80.027 C 277.648 83.023,285.333 75.331,285.333 66.733 C 285.333 62.095,280.459 59.650,276.602 62.354 M231.488 70.671 C 225.049 77.798,225.441 84.000,232.330 84.000 C 237.487 84.000,246.218 72.144,244.048 68.089 C 241.694 63.691,236.905 64.675,231.488 70.671 M177.180 82.270 C 169.139 91.840,169.382 100.000,177.708 100.000 C 181.554 100.000,188.588 88.212,187.167 84.147 C 185.657 79.826,180.110 78.784,177.180 82.270 M261.697 87.000 C 253.727 97.244,254.938 107.543,263.782 104.736 C 267.672 103.501,272.648 91.702,270.763 88.180 C 269.075 85.026,263.769 84.336,261.697 87.000 M214.127 93.904 C 210.045 100.869,209.882 102.444,213.000 104.811 C 218.189 108.750,222.827 105.747,226.909 95.806 C 230.782 86.375,219.521 84.700,214.127 93.904 M249.856 112.458 C 246.420 116.390,244.577 128.149,247.107 130.000 C 252.170 133.701,260.000 125.664,260.000 116.767 C 260.000 111.694,253.090 108.759,249.856 112.458 M204.419 113.667 C 198.661 122.621,198.384 128.785,203.650 130.787 C 209.452 132.993,217.536 119.064,213.369 114.043 C 211.325 111.580,205.907 111.352,204.419 113.667 M240.742 139.000 C 240.463 139.917,239.571 142.739,238.759 145.271 C 236.939 150.949,240.343 155.584,245.199 154.043 C 249.340 152.728,252.608 144.294,250.502 140.359 C 248.720 137.030,241.642 136.045,240.742 139.000 M7.637 179.060 C -3.337 183.829,-2.605 208.413,8.615 211.908 C 14.210 213.650,387.522 213.604,392.079 211.860 C 401.256 208.348,403.356 189.756,395.467 181.867 L 390.933 177.333 201.133 177.393 C 56.129 177.439,10.461 177.833,7.637 179.060 M18.793 233.667 C 27.457 281.010,62.561 320.525,104.261 329.875 C 107.618 330.628,107.763 330.949,106.450 334.716 C 101.556 348.754,107.575 354.667,126.757 354.667 C 144.274 354.667,146.000 353.458,146.000 341.193 L 146.000 333.333 200.000 333.333 L 254.000 333.333 254.000 341.193 C 254.000 353.501,255.690 354.667,273.540 354.667 C 292.348 354.667,297.491 349.775,293.579 335.608 L 292.264 330.846 301.783 327.955 C 341.581 315.867,376.599 274.180,380.988 233.667 L 381.602 228.000 199.679 228.000 L 17.756 228.000 18.793 233.667 " stroke="none" fill="#000000" fill-rule="evenodd"></path></g></svg>