<?xml version="1.0" encoding="UTF-8" standalone="no"?>
<svg
   fill='#aaaaaa'
   version="1.0"
   width="1024.000000pt"
   height="1024.000000pt"
   viewBox="0 0 1024.000000 1024.000000"
   preserveAspectRatio="xMidYMid meet"
   id="svg26"
   sodipodi:docname="pawprintborder.svg"
   inkscape:version="1.3.2 (091e20e, 2023-11-25, custom)"
   xmlns:inkscape="http://www.inkscape.org/namespaces/inkscape"
   xmlns:sodipodi="http://sodipodi.sourceforge.net/DTD/sodipodi-0.dtd"
   xmlns="http://www.w3.org/2000/svg"
   xmlns:svg="http://www.w3.org/2000/svg">

  <defs
     id="defs26" />
  <sodipodi:namedview
     id="namedview26"
     pagecolor="#ffffff"
     bordercolor="#000000"
     borderopacity="0.25"
     inkscape:showpageshadow="2"
     inkscape:pageopacity="0.0"
     inkscape:pagecheckerboard="0"
     inkscape:deskcolor="#d1d1d1"
     inkscape:document-units="pt"
     inkscape:zoom="0.5"
     inkscape:cx="698"
     inkscape:cy="743"
     inkscape:window-width="1920"
     inkscape:window-height="1009"
     inkscape:window-x="-8"
     inkscape:window-y="-8"
     inkscape:window-maximized="1"
     inkscape:current-layer="g38" />
  <g
     inkscape:groupmode="layer"
     id="layer3"
     inkscape:label="border"
     style="display:inline">
    <g
       inkscape:groupmode="layer"
       id="layer2"
       inkscape:label="bottom"
       style="display:inline">
      <g
         id="g27"
         inkscape:label="lowerleftpaw"
         transform="matrix(0.1,0,0,-0.1,0,1024)"
         style="display:inline">
        <path
           d="m 936,1278 c -44,-44 -78,-136 -84,-225 -3,-60 -1,-78 16,-106 68,-109 147,-137 287,-102 117,30 205,84 205,127 0,28 -67,96 -103,104 -41,8 -88,32 -105,53 -7,9 -24,40 -37,69 -14,28 -39,65 -57,82 -44,40 -81,39 -122,-2 z"
           id="path15"
           transform="translate(0,2.5e-4)" />
        <path
           d="m 1082,759 c -21,-6 -36,-19 -42,-34 -5,-14 -14,-25 -18,-25 -15,0 -42,-83 -42,-127 0,-34 6,-48 33,-72 62,-59 124,-32 178,76 34,68 36,91 9,142 -26,52 -48,60 -118,40 z"
           id="path18"
           transform="translate(0,2.5e-4)" />
        <path
           d="m 614,1155 c -10,-8 -26,-15 -34,-15 -9,0 -33,-17 -53,-38 -45,-46 -49,-87 -13,-129 22,-25 30,-28 88,-27 73,1 99,12 151,65 30,31 37,45 37,78 0,37 -3,42 -40,61 -46,24 -108,26 -136,5 z"
           id="path16"
           transform="translate(0,2.5e-4)" />
        <path
           d="m 564,877 c -59,-34 -95,-79 -117,-148 -3,-9 3,-35 13,-57 l 19,-42 h 60 c 55,0 64,3 119,45 43,32 64,56 72,81 13,39 8,97 -11,120 -14,18 -125,19 -155,1 z"
           id="path17"
           style="display:inline"
           transform="translate(0,2.5e-4)" />
        <path
           d="m 778,704 c -15,-8 -47,-42 -72,-75 -38,-51 -46,-68 -46,-104 0,-57 7,-73 41,-90 38,-20 67,-19 116,4 76,37 119,122 107,209 -5,34 -12,46 -35,57 -34,18 -75,18 -111,-1 z"
           id="path19"
           style="display:inline" />
      </g>
      <g
         id="g28"
         inkscape:label="lowerrightpaw"
         transform="matrix(0.1,0,0,-0.1,0,1024)"
         style="display:inline">
        <path
           d="m 9488,1149 c -34,-18 -38,-23 -38,-60 0,-33 7,-47 38,-78 51,-53 77,-64 150,-65 58,-1 66,2 88,27 37,43 32,85 -14,130 -21,20 -44,37 -52,37 -8,0 -24,7 -34,15 -27,21 -94,18 -138,-6 z"
           id="path21"
           transform="translate(0,2.5e-4)" />
        <path
           d="m 9182,1280 c -18,-17 -43,-54 -57,-82 -13,-29 -30,-60 -37,-69 -17,-21 -64,-45 -105,-53 -36,-8 -103,-76 -103,-104 0,-43 88,-97 205,-127 140,-35 219,-7 287,102 42,69 4,259 -68,331 -41,41 -78,42 -122,2 z"
           id="path20"
           transform="translate(0,2.5e-4)" />
        <path
           d="m 9072,763 c -17,-7 -52,-77 -52,-105 0,-34 53,-135 86,-163 40,-34 81,-32 122,6 26,24 32,38 32,72 0,44 -27,127 -42,127 -4,0 -13,11 -18,24 -12,33 -87,55 -128,39 z"
           id="path23"
           transform="translate(0,2.5e-4)" />
        <path
           d="m 9349,705 c -20,-11 -28,-25 -33,-57 -12,-87 31,-172 107,-209 49,-23 78,-24 116,-4 34,17 41,33 41,90 0,36 -8,53 -45,104 -65,86 -124,110 -186,76 z"
           id="path24"
           style="display:inline"
           transform="translate(0,2.5e-4)" />
        <path
           d="m 9521,876 c -19,-23 -24,-81 -11,-120 8,-25 29,-49 72,-81 55,-42 64,-45 119,-45 h 60 l 19,42 c 10,22 16,48 13,57 -22,69 -58,114 -117,148 -30,18 -141,17 -155,-1 z"
           id="path22" />
      </g>
      <path
         d="m 5160,356 c 36,-20 38,-24 23,-38 -14,-15 -12,-16 24,-11 34,4 45,1 64,-18 21,-21 22,-24 6,-27 -19,-4 -22,-17 -6,-27 16,-10 5,-30 -17,-30 -33,0 -22,-30 13,-33 36,-4 73,12 73,31 0,8 -4,7 -11,-3 -9,-12 -10,-12 -5,3 3,10 6,21 6,23 0,3 4,2 10,-1 5,-3 12,6 16,20 8,31 32,32 91,6 50,-23 72,-55 47,-69 -27,-15 0,-23 35,-11 56,20 68,79 25,123 -29,28 -85,48 -112,39 -9,-2 -3,5 15,17 18,12 42,37 54,56 12,19 23,33 26,30 3,-2 -3,-16 -13,-30 -9,-15 -14,-29 -10,-33 9,-9 40,22 91,91 74,101 174,175 305,225 122,47 122,47 111,18 -14,-37 -4,-38 47,-6 58,37 100,48 182,50 149,2 258,-49 281,-133 10,-40 28,-48 52,-24 12,13 15,5 21,-60 12,-132 -31,-185 -163,-198 -30,-3 -58,-11 -62,-18 -13,-20 11,-49 51,-65 23,-10 37,-20 34,-28 -10,-26 37,-55 89,-55 109,0 167,62 175,186 4,69 6,74 22,59 35,-32 50,-13 50,63 0,57 -38,143 -83,190 l -31,32 79,-31 c 99,-39 119,-61 189,-204 30,-60 64,-120 77,-132 39,-36 181,-57 219,-33 12,8 12,11 -1,27 -34,39 -32,41 39,41 106,0 218,39 269,94 63,67 72,197 10,140 -32,-29 -75,-48 -135,-61 -57,-12 -117,-4 -185,26 l -38,16 38,14 c 21,7 81,13 136,13 182,0 400,81 502,185 l 50,51 -3,-51 c -5,-91 46,-153 134,-163 27,-3 65,-16 84,-28 19,-13 40,-24 48,-24 7,0 32,-21 55,-46 37,-39 49,-46 82,-46 55,0 89,39 80,91 -5,32 -2,40 30,69 39,38 49,64 43,121 -3,38 -2,40 34,51 102,30 220,-70 230,-195 l 3,-40 -41,3 c -61,5 -115,-13 -163,-55 -94,-80 -95,-180 -5,-278 19,-21 33,-39 32,-39 -2,-1 -15,-9 -29,-19 -15,-9 -54,-25 -88,-37 -151,-50 -338,-5 -467,113 -60,54 -89,109 -98,183 l -6,50 34,-4 c 27,-3 40,2 60,22 35,34 33,68 -5,100 -55,47 -115,32 -151,-37 -35,-66 -32,-183 5,-260 56,-113 180,-203 342,-248 114,-31 265,-25 350,14 32,15 75,40 93,54 31,24 38,25 68,14 103,-37 231,-32 330,13 l 55,26 55,-54 C 9214,60 9357,0 9474,0 c 90,0 162,27 226,87 75,69 104,133 104,228 0,48 -5,80 -17,103 l -18,33 33,-18 c 50,-27 178,-25 241,4 193,89 250,294 140,506 -20,37 -60,92 -90,123 l -54,55 25,52 c 50,102 57,214 20,307 -16,39 -15,39 14,77 78,98 109,214 91,341 -28,200 -129,354 -279,425 -68,32 -209,31 -266,-2 -69,-39 -82,-94 -35,-142 35,-35 68,-37 106,-8 22,18 26,28 23,56 l -4,35 55,-7 c 77,-9 130,-37 189,-99 90,-95 138,-220 130,-341 -4,-56 -13,-88 -42,-148 l -37,-78 -45,40 c -62,54 -128,76 -186,61 -93,-26 -158,-111 -158,-208 0,-50 -1,-52 -27,-52 -86,0 -193,74 -212,148 -16,57 -7,82 27,82 15,0 41,4 59,9 19,6 33,6 35,0 2,-5 22,14 44,43 41,53 42,53 91,50 45,-3 53,-1 72,23 11,15 21,38 21,51 0,26 -55,94 -76,94 -7,0 -23,22 -34,49 -12,27 -35,61 -51,77 -16,15 -29,37 -29,48 0,33 -36,83 -72,103 -22,12 -54,17 -98,16 -52,0 -61,2 -46,11 70,42 137,146 188,293 26,75 32,106 35,208 4,127 11,185 22,185 14,0 43,-76 48,-126 8,-80 -4,-138 -43,-193 -19,-28 -34,-53 -34,-56 0,-3 12,-5 28,-5 131,0 227,127 227,302 0,43 2,78 5,78 3,0 14,-7 24,-15 38,-29 46,-19 46,53 -1,89 -25,144 -77,170 -21,11 -75,34 -119,51 -114,44 -159,79 -190,149 -15,31 -31,66 -37,77 -9,20 -9,19 14,-1 81,-70 224,-106 274,-70 19,14 19,15 2,34 -18,19 -17,20 45,24 129,8 216,86 204,181 -5,43 -30,77 -56,77 -10,0 -23,13 -30,31 -15,35 -51,62 -72,54 -11,-4 -17,-26 -21,-71 -9,-117 -47,-148 -185,-151 -93,-2 -94,-2 -77,17 22,24 13,50 -17,50 -31,0 -83,33 -104,65 -23,35 -54,150 -54,200 0,57 23,134 54,184 15,24 25,45 23,47 -2,3 -16,0 -30,-5 -24,-9 -25,-9 -18,17 22,74 75,188 110,235 52,70 80,99 91,92 5,-3 11,4 15,15 9,30 136,128 187,146 44,15 118,76 117,98 0,6 -7,1 -16,-12 -30,-43 -133,-68 -161,-40 -20,20 -13,27 22,21 51,-8 158,46 197,100 l 31,42 -7,-37 c -10,-54 16,-102 71,-129 38,-18 49,-19 74,-9 36,15 57,38 65,73 8,31 -10,38 -29,11 -10,-14 -15,-13 -39,6 -31,25 -47,51 -57,97 -7,27 -4,35 16,48 14,9 23,19 20,24 -3,4 15,13 40,19 41,11 44,14 44,47 0,24 -6,37 -19,45 -20,10 -41,-4 -27,-17 3,-3 1,-12 -5,-19 -8,-10 -15,-11 -30,-1 -16,10 -21,9 -28,-2 -5,-8 -16,-11 -30,-6 -27,8 -48,79 -29,102 10,13 9,15 -7,12 -12,-3 -21,-14 -23,-28 -3,-19 -7,-15 -27,26 -12,28 -30,53 -39,56 -21,8 -20,4 9,-39 35,-52 58,-137 50,-182 -10,-57 -47,-104 -105,-136 -83,-45 -160,-37 -160,18 0,19 5,22 29,18 37,-5 50,23 22,51 -39,39 -95,-1 -108,-76 -4,-28 0,-40 25,-68 28,-31 29,-35 15,-56 -14,-22 -16,-22 -28,-6 -11,15 -18,15 -53,5 -47,-14 -64,-32 -31,-32 12,0 31,-7 40,-16 18,-16 18,-18 -6,-46 -14,-16 -25,-37 -25,-47 0,-9 -20,-37 -45,-61 -87,-85 -178,-232 -215,-345 -28,-85 -44,-119 -81,-165 -43,-54 -61,-107 -68,-200 l -6,-85 -65,1 c -71,0 -94,11 -165,73 l -40,36 -3,-27 c -5,-44 64,-193 109,-233 54,-49 78,-52 150,-21 68,29 69,30 69,16 0,-5 -8,-10 -18,-10 -32,0 -74,-54 -79,-104 -3,-25 -3,-52 1,-61 5,-15 9,-14 32,4 26,21 76,27 119,15 12,-3 36,-34 59,-77 21,-40 68,-114 102,-164 42,-61 64,-103 64,-120 -1,-28 -1,-27 -19,8 -29,59 -80,128 -136,184 -107,106 -184,140 -320,140 -65,0 -91,-5 -137,-27 -151,-70 -240,-265 -176,-388 55,-107 204,-121 244,-24 18,42 11,69 -24,107 -20,21 -32,26 -53,22 -59,-13 -38,63 27,94 16,8 52,17 81,19 93,8 167,-53 237,-194 98,-198 103,-373 17,-541 -49,-97 -197,-235 -346,-323 -77,-46 -196,-142 -225,-182 -29,-40 -53,-104 -65,-170 -6,-37 -7,-38 -51,-38 -50,0 -52,-3 -62,-76 l -7,-49 -60,-7 c -33,-3 -80,-15 -105,-26 -92,-41 -129,-81 -274,-295 -85,-126 -185,-232 -268,-284 -29,-19 -90,-45 -136,-60 -73,-23 -94,-25 -185,-20 -198,9 -411,108 -466,214 -15,30 -14,119 3,151 21,40 51,64 78,60 18,-2 22,-8 20,-29 -2,-19 5,-33 28,-53 70,-58 170,-14 170,76 0,126 -122,189 -276,143 -187,-55 -287,-249 -223,-430 40,-115 161,-235 309,-304 59,-28 62,-31 32,-31 -21,0 -56,16 -106,48 -41,27 -117,68 -170,93 -97,45 -116,64 -116,115 0,27 17,65 33,75 19,13 -5,29 -43,29 -59,0 -106,-27 -130,-74 -26,-53 -26,-31 1,36 22,56 21,107 -3,135 -35,42 -198,113 -260,113 h -31 l 40,-43 c 62,-67 71,-87 75,-157 l 3,-64 -75,-2 c -88,-3 -140,-21 -230,-81 -36,-24 -101,-55 -145,-69 -77,-24 -161,-66 -236,-117 -19,-13 -54,-26 -78,-30 -23,-3 -50,-12 -60,-21 -25,-23 -37,-20 -51,14 -15,35 -26,32 -35,-12 -6,-24 -3,-35 9,-44 15,-10 14,-12 -6,-17 l -22,-6 22,-24 c 27,-28 27,-39 4,-60 -16,-15 -17,-14 -17,24 0,57 -40,94 -100,93 -55,-1 -87,-26 -83,-63 2,-20 9,-27 32,-29 26,-3 28,-1 24,22 -7,35 7,42 39,21 22,-15 25,-22 20,-56 -6,-46 -45,-102 -91,-130 -44,-28 -141.9358,-6.62486 -208,15 -16.0849,5.26508 -43,27 -43,27 m -30,0 c 0,0 -26.9151,-21.73492 -43,-27 -66.0642,-21.62486 -164,-43 -208,-15 -46,28 -85,84 -91,130 -5,34 -2,41 20,56 32,21 46,14 39,-21 -4,-23 -2,-25 24,-22 23,2 30,9 32,29 4,37 -28,62 -83,63 -60,1 -100,-36 -100,-93 0,-38 -1,-39 -17,-24 -23,21 -23,32 4,60 l 22,24 -22,6 c -20,5 -21,7 -6,17 12,9 15,20 9,44 -9,44 -20,47 -35,12 -14,-34 -26,-37 -51,-14 -10,9 -37,18 -60,21 -24,4 -59,17 -78,30 -75,51 -159,93 -236,117 -44,14 -109,45 -145,69 -90,60 -142,78 -230,81 l -75,2 3,64 c 4,70 13,90 75,157 l 40,43 h -31 c -62,0 -225,-71 -260,-113 -24,-28 -25,-79 -3,-135 27,-67 27,-89 1,-36 -24,47 -71,74 -130,74 -38,0 -62,-16 -43,-29 16,-10 33,-48 33,-75 0,-51 -19,-70 -116,-115 -53,-25 -129,-66 -170,-93 -50,-32 -85,-48 -106,-48 -30,0 -27,3 32,31 148,69 269,189 309,304 64,181 -36,375 -223,430 -154,46 -276,-17 -276,-143 0,-90 100,-134 170,-76 23,20 30,34 28,53 -2,21 2,27 20,29 27,4 57,-20 78,-60 17,-32 18,-121 3,-151 -55,-106 -268,-205 -466,-214 -91,-5 -112,-3 -185,20 -46,15 -107,41 -136,60 -83,52 -183,158 -268,284 -145,214 -182,254 -274,295 -25,11 -72,23 -105,26 l -60,7 -7,49 c -10,73 -12,76 -62,76 -44,0 -45,1 -51,38 -12,66 -36,130 -65,170 -29,40 -148,136 -225,182 -88,52 -229,166 -276,222 -92,111 -129,209 -129,344 0,183 101,403 216,470 37,22 54,26 97,22 29,-2 65,-11 81,-19 65,-31 86,-107 27,-94 -21,4 -33,-1 -53,-22 -35,-38 -42,-65 -24,-107 27,-65 108,-84 181,-43 153,85 83,364 -113,455 -102,48 -264,33 -360,-31 -85,-57 -186,-172 -233,-266 -18,-35 -18,-36 -19,-8 0,17 22,59 64,120 34,50 81,124 102,164 23,43 47,74 59,77 43,12 93,6 119,-15 23,-18 27,-19 32,-4 4,9 4,36 1,61 -5,50 -47,104 -79,104 -10,0 -18,5 -18,10 0,14 1,13 69,-16 72,-31 96,-28 150,21 45,40 114,189 109,233 l -3,27 -40,-36 c -71,-62 -94,-73 -165,-73 l -65,-1 -6,85 c -7,93 -25,146 -68,200 -37,46 -53,80 -81,165 -37,113 -128,260 -215,345 -25,24 -45,52 -45,61 0,10 -11,31 -25,47 -24,28 -24,30 -6,46 9,9 28,16 40,16 33,0 16,18 -31,32 -35,10 -42,10 -53,-5 -12,-16 -14,-16 -28,6 -14,21 -13,25 15,56 25,28 29,40 25,68 -13,75 -69,115 -108,76 -28,-28 -15,-56 22,-51 24,4 29,1 29,-18 0,-55 -77,-63 -160,-18 -58,32 -95,79 -105,136 -9,45 15,131 50,182 27,40 28,46 6,38 -7,-2 -23,-27 -36,-54 -20,-42 -24,-46 -27,-27 -2,14 -11,25 -23,28 -16,3 -17,1 -7,-12 19,-23 -2,-94 -29,-102 -14,-5 -25,-2 -30,6 -7,11 -12,12 -28,2 -15,-10 -22,-9 -30,1 -6,7 -8,16 -5,19 14,13 -7,27 -27,17 -13,-8 -19,-21 -19,-45 0,-33 3,-36 44,-47 25,-6 43,-15 40,-19 -3,-5 6,-15 20,-24 20,-13 23,-21 16,-48 -10,-46 -26,-72 -57,-97 -24,-19 -29,-20 -39,-6 -19,27 -37,20 -29,-11 8,-35 29,-58 65,-73 25,-10 36,-9 74,9 55,27 81,75 71,129 l -7,37 31,-42 c 39,-54 146,-108 197,-100 35,6 42,-1 22,-21 -28,-28 -131,-3 -161,40 -9,13 -16,18 -16,12 -1,-22 73,-83 117,-98 51,-18 178,-116 187,-146 4,-11 10,-18 15,-15 11,7 39,-22 91,-92 35,-47 88,-161 110,-235 7,-26 6,-26 -18,-17 -14,5 -28,8 -30,5 -2,-2 8,-23 23,-47 31,-50 54,-127 54,-184 0,-50 -31,-165 -54,-200 -21,-32 -73,-65 -104,-65 -30,0 -39,-26 -17,-50 17,-19 16,-19 -77,-17 -138,3 -176,34 -185,151 -4,45 -10,67 -21,71 -21,8 -57,-19 -72,-54 -7,-18 -20,-31 -30,-31 -26,0 -51,-34 -56,-77 -12,-95 75,-173 204,-181 62,-4 63,-5 45,-24 -17,-19 -17,-20 2,-34 50,-36 193,0 274,70 23,20 23,21 14,1 -6,-11 -22,-46 -37,-77 -31,-70 -76,-105 -190,-149 -44,-17 -98,-40 -119,-51 -52,-26 -76,-81 -77,-170 0,-72 8,-82 46,-53 10,8 21,15 24,15 3,0 5,-35 5,-78 0,-175 96,-302 228,-302 15,0 27,2 27,5 0,3 -15,28 -34,56 -39,55 -51,113 -43,193 5,50 34,126 48,126 11,0 18,-58 22,-185 3,-102 9,-133 35,-208 51,-147 118,-251 188,-293 15,-9 6,-11 -46,-11 -44,1 -76,-4 -98,-16 -36,-20 -72,-70 -72,-103 0,-11 -13,-33 -29,-48 -16,-16 -39,-50 -51,-77 -11,-27 -27,-49 -34,-49 -21,0 -76,-68 -76,-94 0,-13 10,-36 21,-51 19,-24 27,-26 72,-23 49,3 50,3 91,-50 22,-29 42,-48 44,-43 2,6 16,6 35,0 18,-5 44,-9 59,-9 34,0 43,-25 27,-82 -19,-74 -126,-148 -211,-148 -27,0 -28,2 -28,52 0,97 -65,182 -158,208 -58,15 -124,-7 -186,-61 l -45,-40 -37,78 c -29,60 -38,92 -42,148 -8,121 40,246 130,341 59,62 112,90 189,99 l 55,7 -4,-35 c -3,-28 1,-38 23,-56 38,-29 71,-27 106,8 47,48 34,103 -35,142 -57,33 -198,34 -266,2 -150,-71 -251,-225 -279,-425 -18,-127 13,-243 91,-341 29,-38 30,-38 14,-77 -37,-93 -30,-205 20,-307 l 25,-52 -54,-55 C 117,1035 77,980 57,943 -53,731 4,526 197,437 c 63,-29 191,-31 241,-4 l 33,18 -18,-33 C 441,395 436,363 436,315 436,220 465,156 540,87 604,27 676,0 766,0 c 117,0 260,60 348,146 l 55,54 55,-26 c 99,-45 227,-50 330,-13 30,11 37,10 68,-14 18,-14 61,-39 93,-54 85,-39 236,-45 350,-14 162,45 286,135 342,248 37,77 40,194 5,260 -36,69 -96,84 -151,37 -38,-32 -40,-66 -5,-100 20,-20 33,-25 60,-22 l 34,4 -6,-50 c -16,-133 -119,-235 -298,-296 -107,-36 -262,-20 -355,37 -14,10 -27,18 -29,19 -1,0 13,18 32,39 90,98 89,198 -5,278 -48,42 -102,60 -163,55 l -41,-3 3,40 c 10,125 128,225 230,195 36,-11 37,-13 34,-51 -6,-57 4,-83 43,-121 32,-29 35,-37 30,-69 -9,-52 25,-91 80,-91 33,0 45,7 82,46 23,25 48,46 55,46 8,0 29,11 48,24 19,12 57,25 84,28 88,10 139,72 134,163 l -3,51 50,-51 c 102,-104 320,-185 502,-185 55,0 115,-6 136,-13 l 38,-14 -38,-16 c -68,-30 -128,-38 -185,-26 -60,13 -103,32 -135,61 -62,57 -53,-73 10,-140 51,-55 163,-94 269,-94 71,0 73,-2 39,-41 -13,-16 -13,-19 -1,-27 38,-24 180,-3 219,33 13,12 47,72 77,132 70,143 90,165 189,204 l 79,31 -31,-32 c -45,-47 -83,-133 -83,-190 0,-76 15,-95 50,-63 16,15 18,10 22,-59 8,-124 66,-186 175,-186 52,0 99,29 89,55 -3,8 11,18 34,28 40,16 64,45 51,65 -4,7 -32,15 -62,18 -132,13 -175,66 -163,198 6,65 9,73 21,60 24,-24 42,-16 52,24 23,84 132,135 281,133 82,-2 124,-13 182,-50 51,-32 61,-31 47,6 -11,29 -11,29 111,-18 131,-50 231,-124 305,-225 51,-69 82,-100 91,-91 4,4 -1,18 -10,33 -10,14 -16,28 -13,30 3,3 14,-11 26,-30 12,-19 36,-44 54,-56 18,-12 24,-19 15,-17 -27,9 -83,-11 -112,-39 -43,-44 -31,-103 25,-123 35,-12 62,-4 35,11 -25,14 -3,46 47,69 59,26 83,25 91,-6 4,-14 10,-23 15,-20 5,2 12,-2 15,-11 9,-24 7,-31 -4,-14 -6,9 -10,10 -10,3 0,-19 37,-35 73,-31 35,3 46,33 13,33 -22,0 -33,20 -17,30 16,10 13,23 -6,27 -16,3 -15,6 6,27 19,19 30,22 64,18 36,-5 38,-4 24,11 -15,14 -13,18 23,38 M 865,3124 c -42,-55 -58,-84 -85,-156 -30,-81 -35,-121 -34,-268 0,-121 3,-142 26,-202 32,-80 83,-162 139,-223 44,-48 44,-53 0,-31 -48,25 -102,96 -146,190 -124,265 -99,488 75,679 29,32 54,57 56,57 2,0 -12,-21 -31,-46 z m 8623,-131 c 91,-172 87,-346 -13,-559 -44,-94 -98,-165 -146,-190 -44,-22 -44,-17 0,31 56,61 107,143 139,223 23,60 26,81 26,202 1,147 -4,187 -34,268 -27,71 -42,100 -85,158 -34,47 -33,46 23,-13 32,-34 73,-88 90,-120 z M 1212,2010 c 21,-11 45,-17 53,-14 20,8 107,-60 185,-142 66,-72 85,-102 95,-157 7,-36 7,-37 -24,-37 -26,0 -31,4 -31,23 0,36 -32,59 -76,55 -31,-2 -43,-9 -59,-35 -26,-41 -40,-41 -79,1 -37,40 -66,56 -99,56 -23,0 -24,3 -30,93 -3,50 -13,112 -21,136 -9,24 -16,46 -16,49 0,9 65,-8 102,-28 z m 7918,26 c 0,-2 -7,-23 -16,-47 -8,-24 -18,-86 -21,-136 -6,-90 -7,-93 -30,-93 -33,0 -62,-16 -99,-56 -39,-42 -53,-42 -79,-1 -16,26 -28,33 -59,35 -44,4 -76,-19 -76,-55 0,-19 -5,-23 -31,-23 -31,0 -31,1 -24,37 10,55 29,85 95,157 78,82 165,150 185,142 8,-3 32,3 53,13 54,27 102,40 102,27 z M 1455,1700 c 12,-20 -17,-42 -44,-35 -32,8 -33,9 -25,29 7,18 59,22 69,6 z m 7399,-6 c 8,-20 7,-21 -25,-29 -27,-7 -56,15 -44,35 10,16 62,12 69,-6 z m -7660,-50 c 44,-43 55,-132 31,-249 -9,-44 -19,-103 -22,-131 -4,-48 -3,-52 28,-78 37,-31 51,-31 189,-1 168,37 300,8 300,-66 0,-10 -30,-31 -82,-57 -171,-84 -257,-224 -262,-424 -1,-47 -7,-92 -13,-100 -24,-30 -43,-79 -43,-112 0,-45 39,-79 86,-74 29,3 35,-2 68,-51 20,-29 36,-57 36,-62 0,-30 -180,-21 -249,13 -49,24 -48,22 -35,102 l 6,38 -28,-18 c -16,-10 -32,-23 -36,-28 -3,-5 -32,-9 -62,-7 -31,1 -56,-2 -56,-6 0,-5 16,-28 36,-51 41,-49 38,-60 -28,-114 C 945,75 787,36 668,72 580,98 490,217 490,308 c 0,48 11,74 46,113 19,20 23,32 18,57 -6,28 -9,30 -28,20 -17,-9 -19,-8 -8,3 38,41 -31,39 -98,-3 C 354,457 298,456 217,494 85,557 32,683 76,831 c 24,82 57,140 109,192 49,50 65,56 86,31 7,-8 25,-22 39,-29 27,-14 27,-13 39,26 9,31 10,44 0,55 -9,11 -8,14 5,14 10,0 32,16 50,35 38,40 33,42 -59,21 -67,-16 -64,-18 -97,52 -23,50 -34,134 -24,187 8,41 11,41 83,0 48,-27 53,-33 53,-65 0,-54 23,-80 71,-80 44,0 98,19 117,42 9,11 25,14 60,10 72,-6 207,23 289,63 86,43 159,118 203,211 25,52 35,64 55,64 13,0 31,-7 39,-16 z m 7946,-48 c 44,-93 117,-168 203,-211 82,-40 217,-69 289,-63 35,4 51,1 60,-10 19,-23 73,-42 117,-42 48,0 71,26 71,80 0,32 5,38 53,65 72,41 75,41 83,0 10,-53 -1,-137 -24,-187 -33,-70 -30,-68 -97,-52 -92,21 -97,19 -59,-21 18,-19 40,-35 50,-35 13,0 14,-3 5,-14 -10,-11 -9,-24 0,-55 12,-39 12,-40 39,-26 14,7 32,21 39,29 21,25 37,19 86,-31 52,-52 85,-110 109,-192 44,-148 -9,-274 -141,-337 -81,-38 -137,-37 -203,4 -67,42 -136,44 -97,3 10,-11 8,-12 -9,-3 -19,10 -22,8 -28,-20 -5,-25 -1,-37 18,-57 35,-39 46,-65 46,-113 0,-91 -90,-210 -178,-236 -119,-36 -277,3 -390,96 -66,54 -69,65 -28,114 20,23 36,46 36,51 0,4 -25,7 -56,6 -30,-2 -59,2 -62,7 -4,5 -20,18 -36,28 l -28,18 6,-38 c 13,-80 14,-78 -35,-102 -69,-34 -249,-43 -249,-13 0,5 16,33 36,62 33,49 39,54 68,51 47,-5 86,29 86,74 0,33 -19,82 -43,112 -6,8 -12,53 -13,100 -5,200 -91,340 -261,424 -53,26 -83,47 -83,57 0,74 132,103 300,66 138,-30 152,-30 189,1 31,26 32,30 28,78 -3,28 -13,87 -22,131 -31,150 0,265 70,265 20,0 30,-12 55,-64 z m -7786,-19 c 32,-76 119,-117 171,-83 14,9 36,37 48,62 18,38 26,44 47,42 22,-3 25,-9 28,-44 3,-38 0,-42 -28,-54 -37,-15 -70,-55 -70,-84 1,-36 35,-88 76,-113 l 39,-25 -50,5 c -66,7 -225,-10 -282,-29 -25,-9 -47,-14 -49,-12 -2,2 3,25 11,52 24,80 37,208 27,264 -13,72 5,83 32,19 z m 7564,-18 c -10,-57 2,-184 27,-265 8,-27 13,-50 11,-52 -2,-2 -24,3 -49,12 -57,19 -216,36 -282,29 l -50,-5 39,25 c 41,25 75,77 76,113 0,29 -33,69 -70,84 -28,12 -31,16 -28,54 3,35 6,41 28,44 21,2 29,-4 47,-42 29,-58 62,-80 110,-73 39,7 98,56 109,91 20,65 44,53 32,-15 z m -7400,41 c 20,0 21,-3 12,-20 -26,-49 -94,-44 -129,9 l -16,24 55,-6 c 30,-4 65,-7 78,-7 z m 7323,-8 c -27,-51 -91,-62 -124,-21 l -19,24 43,6 c 24,3 59,7 77,7 29,2 32,0 23,-16 z M 505,1565 c 32,-24 35,-30 35,-81 v -54 h -37 c -21,0 -54,5 -73,10 -50,14 -145,72 -145,89 0,8 25,27 55,43 66,35 113,33 165,-7 z m 9395,7 c 30,-16 55,-35 55,-43 0,-17 -95,-75 -145,-89 -19,-5 -52,-10 -72,-10 h -38 v 53 c 0,58 9,72 65,101 43,23 73,20 135,-12 z M 1842,1450 c 112,-58 266,-239 298,-350 10,-35 6,-35 -70,-3 -19,8 -83,17 -142,20 l -108,6 v 30 c 0,23 -11,41 -45,73 -50,46 -54,54 -26,54 10,0 30,9 45,21 49,39 23,126 -36,117 -32,-4 -30,-33 2,-33 21,0 25,-5 25,-30 0,-26 -4,-30 -31,-33 l -32,-3 -4,73 c -3,40 -3,77 0,82 7,13 78,0 124,-24 z m 6682,8 c 0,-10 -1,-45 -2,-79 l -2,-60 -32,3 c -29,3 -33,6 -33,33 0,25 4,30 25,30 32,0 34,29 2,33 -59,9 -85,-78 -36,-117 15,-12 35,-21 45,-21 28,0 24,-8 -26,-54 -34,-32 -45,-50 -45,-73 v -30 l -107,-6 c -60,-3 -124,-12 -143,-20 -76,-32 -80,-32 -70,3 32,110 188,294 296,348 56,28 65,31 99,29 22,-1 30,-7 29,-19 z m -6864,-65 c 0,-55 0,-56 -20,-38 -22,20 -26,55 -9,86 17,32 29,12 29,-48 z m 6960,7 c 0,-15 -9,-35 -20,-45 -20,-18 -20,-17 -20,37 0,30 3,58 7,62 11,11 33,-25 33,-54 z M 468,1346 c 23,-6 42,-14 42,-18 0,-12 -37,-28 -67,-28 -35,0 -53,16 -53,48 0,19 4,23 18,17 9,-5 36,-13 60,-19 z m 9382,1 c 0,-31 -18,-47 -53,-47 -52,0 -96,39 -44,40 12,1 36,7 52,15 42,19 45,18 45,-8 z M 2210,945 c 0,-17 -2,-17 -10,-5 -5,8 -10,24 -10,35 0,17 2,17 10,5 5,-8 10,-24 10,-35 z m 5831,-2 c -9,-16 -10,-16 -11,-1 0,9 3,25 7,35 7,16 8,17 11,1 2,-10 -1,-25 -7,-35 z M 2442,790 c 82,-57 194,-100 300,-113 160,-20 360,22 495,104 l 48,29 -45,-40 c -25,-22 -84,-60 -131,-84 -190,-96 -405,-81 -638,45 -90,48 -109,65 -141,122 l -24,42 40,-33 c 21,-18 65,-51 96,-72 z m 5467,60 c -31,-54 -51,-71 -140,-119 -233,-126 -448,-141 -638,-45 -47,24 -106,62 -131,84 l -45,40 48,-29 c 135,-82 335,-124 495,-104 141,18 271,78 392,182 19,17 36,31 38,31 2,0 -7,-18 -19,-40 z M 2127,646 c -23,-24 -78,-56 -97,-56 -5,0 -10,8 -10,18 0,24 58,61 97,61 l 32,1 z m 6058,2 c 32,-22 48,-58 25,-58 -19,0 -74,32 -97,56 l -22,24 h 30 c 16,0 45,-10 64,-22 z M 1614,511 c 26,-23 46,-66 46,-100 0,-31 -29,-93 -57,-121 -13,-13 -17,-12 -40,15 -35,42 -70,121 -77,177 -7,43 -5,47 16,50 41,6 93,-4 112,-21 z m 7140,-30 c -7,-55 -42,-134 -77,-176 -23,-27 -27,-28 -40,-15 -28,28 -57,90 -57,121 0,83 68,135 158,120 21,-3 22,-7 16,-50 z M 1403,444 c 10,-31 15,-59 12,-63 -11,-10 -60,24 -63,45 -3,24 14,74 26,74 4,0 16,-25 25,-56 z m 7482,12 c 8,-34 7,-41 -14,-57 -26,-22 -54,-25 -49,-6 2,6 10,34 17,60 16,55 32,56 46,3 z"
         id="path14"
         inkscape:label="mainborderbottom"
         style="display:inline"
         sodipodi:nodetypes="cccscsscsccscccccccssccsccccccccccccsccsccccsccsccccccscccccscscccccccccccccccccccccccccccscsccccccccccccccccccccccccsscscccccssccsccsccsscsssscccccccccccscccccscsccccccccccscccccccccccccsccccccccccccccscscccccsccscccccccccccsscccccccccsccccccccccscscccccccccccccscccsccscscccscccccscccccccccccscccccccaccacccccccscccccccccccscccccscccscsccscccscccccccccccccscsccscccccccccccccccccsscccccccccccsccscccccscsccccccccccccccscccccccccccccsccccccccccscscccccscccccccccccsssscssccsccsccsscccccscssccccccccccccccccccccccccscsccccccccccccccccccccccccccscscccccsccccccsccsccccsccsccccccccccccsccsscccccccccscsscscccccccccccscccccccccccccccsscccsccscsccscccssccccscccccccccccccscccsccsccccccscccsccccccccccccscccccssccccscccccsscccccsccccccccccccscccsccccccsccscccsccccsccccccccccccscccccsccccccccccccsccccscccccccscscscccscscsccccsccscsccsscccccccccssccscsccscsccsccsscssscsssccssccsscscsccccccccccccccccccccccccsccssccccsccsccssccccccsscccccscccccc"
         transform="matrix(0.1,0,0,-0.1,0,1024)" />
    </g>
    <g
       inkscape:groupmode="layer"
       id="g38"
       inkscape:label="top"
       style="display:inline">
      <g
         id="g32"
         inkscape:label="lowerleftpaw"
         transform="matrix(0.1,0,0,0.1,-0.1497173,-1.0000024e-8)"
         style="display:inline">
        <path
           d="m 936,1278 c -44,-44 -78,-136 -84,-225 -3,-60 -1,-78 16,-106 68,-109 147,-137 287,-102 117,30 205,84 205,127 0,28 -67,96 -103,104 -41,8 -88,32 -105,53 -7,9 -24,40 -37,69 -14,28 -39,65 -57,82 -44,40 -81,39 -122,-2 z"
           id="path28"
           transform="translate(0,2.5e-4)" />
        <path
           d="m 1082,759 c -21,-6 -36,-19 -42,-34 -5,-14 -14,-25 -18,-25 -15,0 -42,-83 -42,-127 0,-34 6,-48 33,-72 62,-59 124,-32 178,76 34,68 36,91 9,142 -26,52 -48,60 -118,40 z"
           id="path29"
           transform="translate(0,2.5e-4)" />
        <path
           d="m 614,1155 c -10,-8 -26,-15 -34,-15 -9,0 -33,-17 -53,-38 -45,-46 -49,-87 -13,-129 22,-25 30,-28 88,-27 73,1 99,12 151,65 30,31 37,45 37,78 0,37 -3,42 -40,61 -46,24 -108,26 -136,5 z"
           id="path30"
           transform="translate(0,2.5e-4)" />
        <path
           d="m 564,877 c -59,-34 -95,-79 -117,-148 -3,-9 3,-35 13,-57 l 19,-42 h 60 c 55,0 64,3 119,45 43,32 64,56 72,81 13,39 8,97 -11,120 -14,18 -125,19 -155,1 z"
           id="path31"
           style="display:inline"
           transform="translate(0,2.5e-4)" />
        <path
           d="m 778,704 c -15,-8 -47,-42 -72,-75 -38,-51 -46,-68 -46,-104 0,-57 7,-73 41,-90 38,-20 67,-19 116,4 76,37 119,122 107,209 -5,34 -12,46 -35,57 -34,18 -75,18 -111,-1 z"
           id="path32"
           style="display:inline" />
      </g>
      <g
         id="g37"
         inkscape:label="lowerrightpaw"
         transform="matrix(0.1,0,0,0.1,-0.1497173,-1.0000024e-8)"
         style="display:inline">
        <path
           d="m 9488,1149 c -34,-18 -38,-23 -38,-60 0,-33 7,-47 38,-78 51,-53 77,-64 150,-65 58,-1 66,2 88,27 37,43 32,85 -14,130 -21,20 -44,37 -52,37 -8,0 -24,7 -34,15 -27,21 -94,18 -138,-6 z"
           id="path33"
           transform="translate(0,2.5e-4)" />
        <path
           d="m 9182,1280 c -18,-17 -43,-54 -57,-82 -13,-29 -30,-60 -37,-69 -17,-21 -64,-45 -105,-53 -36,-8 -103,-76 -103,-104 0,-43 88,-97 205,-127 140,-35 219,-7 287,102 42,69 4,259 -68,331 -41,41 -78,42 -122,2 z"
           id="path34"
           transform="translate(0,2.5e-4)" />
        <path
           d="m 9072,763 c -17,-7 -52,-77 -52,-105 0,-34 53,-135 86,-163 40,-34 81,-32 122,6 26,24 32,38 32,72 0,44 -27,127 -42,127 -4,0 -13,11 -18,24 -12,33 -87,55 -128,39 z"
           id="path35"
           transform="translate(0,2.5e-4)" />
        <path
           d="m 9349,705 c -20,-11 -28,-25 -33,-57 -12,-87 31,-172 107,-209 49,-23 78,-24 116,-4 34,17 41,33 41,90 0,36 -8,53 -45,104 -65,86 -124,110 -186,76 z"
           id="path36"
           style="display:inline"
           transform="translate(0,2.5e-4)" />
        <path
           d="m 9521,876 c -19,-23 -24,-81 -11,-120 8,-25 29,-49 72,-81 55,-42 64,-45 119,-45 h 60 l 19,42 c 10,22 16,48 13,57 -22,69 -58,114 -117,148 -30,18 -141,17 -155,-1 z"
           id="path37" />
      </g>
      <path
         d="m 515.85027,35.6 c 3.6,-2 3.8,-2.4 2.3,-3.8 -1.4,-1.5 -1.2,-1.6 2.4,-1.1 3.4,0.4 4.5,0.1 6.4,-1.8 2.1,-2.1 2.2,-2.4 0.6,-2.7 -1.9,-0.4 -2.2,-1.7 -0.6,-2.7 1.6,-1 0.5,-3 -1.7,-3 -3.3,0 -2.2,-3 1.3,-3.3 3.6,-0.4 7.3,1.2 7.3,3.1 0,0.8 -0.4,0.7 -1.1,-0.3 -0.9,-1.2 -1,-1.2 -0.5,0.3 0.3,1 0.6,2.1 0.6,2.3 0,0.3 0.4,0.2 1,-0.1 0.5,-0.3 1.2,0.6 1.6,2 0.8,3.1 3.2,3.2 9.1,0.6 5,-2.3 7.2,-5.5 4.7,-6.9 -2.7,-1.5 0,-2.3 3.5,-1.1 5.6,2 6.8,7.9 2.5,12.3 -2.9,2.8 -8.5,4.8 -11.2,3.9 -0.9,-0.2 -0.3,0.5 1.5,1.7 1.8,1.2 4.2,3.7 5.4,5.6 1.2,1.9 2.3,3.3 2.6,3 0.3,-0.2 -0.3,-1.6 -1.3,-3 -0.9,-1.5 -1.4,-2.9 -1,-3.3 0.9,-0.9 4,2.2 9.1,9.1 7.4,10.1 17.4,17.5 30.5,22.5 12.2,4.7 12.2,4.7 11.1,1.8 -1.4,-3.7 -0.4,-3.8 4.7,-0.6 5.8,3.7 10,4.8 18.2,5 14.9,0.2 25.8,-4.9 28.1,-13.3 1,-4 2.8,-4.8 5.2,-2.4 1.2,1.3 1.5,0.5 2.1,-6 1.2,-13.2 -3.1,-18.5 -16.3,-19.8 -3,-0.3 -5.8,-1.1 -6.2,-1.8 -1.3,-2 1.1,-4.9 5.1,-6.5 2.3,-1 3.7,-2 3.4,-2.8 -1,-2.6 3.7,-5.5 8.9,-5.5 10.9,0 16.7,6.2 17.5,18.6 0.4,6.9 0.6,7.4 2.2,5.9 3.5,-3.2 5,-1.3 5,6.3 0,5.7 -3.8,14.3 -8.3,19 l -3.1,3.2 7.9,-3.1 c 9.9,-3.9 11.9,-6.1 18.9,-20.4 3,-6 6.4,-12 7.7,-13.2 3.9,-3.6 18.1,-5.7 21.9,-3.3 1.2,0.8 1.2,1.1 -0.1,2.7 -3.4,3.9 -3.2,4.1 3.9,4.1 10.6,0 21.8,3.9 26.9,9.4 6.3,6.7 7.2,19.7 1,14 -3.2,-2.9 -7.5,-4.8 -13.5,-6.1 -5.7,-1.2 -11.7,-0.4 -18.5,2.6 l -3.8,1.6 3.8,1.4 c 2.1,0.7 8.1,1.3 13.6,1.3 18.2,0 40,8.1 50.2,18.5 l 5,5.1 -0.3,-5.1 c -0.5,-9.1 4.6,-15.3 13.4,-16.3 2.7,-0.3 6.5,-1.6 8.4,-2.8 1.9,-1.3 4,-2.4 4.8,-2.4 0.7,0 3.2,-2.1 5.5,-4.6 3.7,-3.9 4.9,-4.6 8.2,-4.6 5.5,0 8.9,3.9 8,9.1 -0.5,3.2 -0.2,4 3,6.9 3.9,3.8 4.9,6.4 4.3,12.1 -0.3,3.8 -0.2,4 3.4,5.1 10.2,3 22,-7 23,-19.5 l 0.3,-4 -4.1,0.3 c -6.1,0.5 -11.5,-1.3 -16.3,-5.5 -9.4,-8 -9.5,-18 -0.5,-27.8 1.9,-2.1 3.3,-3.9 3.2,-3.9 -0.2,-0.1 -1.5,-0.9 -2.9,-1.9 -1.5,-0.9 -5.4,-2.5 -8.8,-3.7 -15.1,-5 -33.8,-0.5 -46.7,11.3 -6,5.4 -8.9,10.9 -9.8,18.3 l -0.6,5 3.4,-0.4 c 2.7,-0.3 4,0.2 6,2.2 3.5,3.4 3.3,6.8 -0.5,10 -5.5,4.7 -11.5,3.2 -15.1,-3.7 -3.5,-6.6 -3.2,-18.3 0.5,-26 5.6,-11.3 18,-20.3 34.2,-24.7999998 11.4,-3.1000002 26.5,-2.5000002 35,1.4 3.2,1.4999998 7.5,3.9999998 9.3,5.3999998 3.1,2.4 3.8,2.5 6.8,1.4 10.3,-3.7 23.1,-3.2 33,1.3 l 5.5,2.6 5.5,-5.4 c 8.8,-8.6 23.1,-14.6 34.8,-14.6 9,0 16.2,2.7 22.6,8.7000002 7.5,6.8999998 10.4,13.2999998 10.4,22.7999998 0,4.8 -0.5,8 -1.7,10.3 l -1.8,3.3 3.3,-1.8 c 5,-2.7 17.8,-2.5 24.09993,0.4 19.3,8.9 25,29.4 14,50.6 -2,3.700003 -6,9.2 -9,12.3 l -5.4,5.5 2.5,5.2 c 5,10.2 5.7,21.4 2,30.7 -1.6,3.9 -1.5,3.9 1.4,7.7 7.8,9.8 10.9,21.4 9.1,34.1 -2.8,20 -12.9,35.4 -27.89993,42.5 -6.8,3.2 -20.9,3.1 -26.6,-0.2 -6.9,-3.9 -8.2,-9.4 -3.5,-14.2 3.5,-3.5 6.8,-3.7 10.6,-0.8 2.2,1.8 2.6,2.8 2.3,5.6 l -0.4,3.5 5.5,-0.7 c 7.7,-0.9 13,-3.7 18.9,-9.9 8.99993,-9.5 13.79993,-22 12.99993,-34.1 -0.4,-5.6 -1.3,-8.8 -4.2,-14.8 l -3.7,-7.8 -4.49993,4 c -6.2,5.4 -12.8,7.6 -18.6,6.1 -9.3,-2.6 -15.8,-11.1 -15.8,-20.8 0,-5 -0.1,-5.2 -2.7,-5.2 -8.6,0 -19.3,7.4 -21.2,14.8 -1.6,5.7 -0.7,8.2 2.7,8.2 1.5,0 4.1,0.4 5.9,0.9 1.9,0.6 3.3,0.6 3.5,0 0.2,-0.5 2.2,1.4 4.4,4.3 4.1,5.3 4.2,5.3 9.1,5 4.5,-0.3 5.3,-0.1 7.2,2.3 1.1,1.5 2.1,3.8 2.1,5.1 0,2.6 -5.5,9.4 -7.6,9.4 -0.7,0 -2.3,2.2 -3.4,4.9 -1.2,2.7 -3.5,6.1 -5.1,7.7 -1.6,1.5 -2.9,3.7 -2.9,4.8 0,3.3 -3.6,8.3 -7.2,10.3 -2.2,1.2 -5.4,1.7 -9.8,1.6 -5.2,0 -6.1,0.2 -4.6,1.1 7,4.2 13.7,14.6 18.8,29.3 2.6,7.5 3.2,10.6 3.5,20.8 0.4,12.7 1.1,18.5 2.2,18.5 1.4,0 4.3,-7.6 4.8,-12.6 0.8,-8 -0.4,-13.8 -4.3,-19.3 -1.9,-2.8 -3.4,-5.3 -3.4,-5.6 0,-0.3 1.2,-0.5 2.8,-0.5 13.1,0 22.7,12.7 22.7,30.2 0,4.3 0.2,7.8 0.5,7.8 0.3,0 1.4,-0.7 2.4,-1.5 3.8,-2.9 4.6,-1.9 4.6,5.3 -0.1,8.9 -2.5,14.4 -7.7,17 -2.1,1.1 -7.5,3.4 -11.9,5.1 -11.4,4.4 -15.9,7.9 -19,14.9 -1.5,3.1 -3.1,6.6 -3.7,7.7 -0.9,2 -0.9,1.9 1.4,-0.1 8.1,-7 22.4,-10.6 27.4,-7 1.9,1.4 1.9,1.5 0.2,3.4 -1.8,1.9 -1.7,2 4.5,2.4 12.9,0.8 21.59993,8.6 20.39993,18.1 -0.49996,4.3 -2.99993,7.7 -5.59993,7.7 -1,0 -2.3,1.3 -3,3.1 -1.5,3.5 -5.1,6.2 -7.2,5.4 -1.1,-0.4 -1.7,-2.6 -2.1,-7.1 -0.9,-11.7 -4.7,-14.8 -18.5,-15.1 -9.3,-0.2 -9.4,-0.2 -7.7,1.7 2.2,2.4 1.3,5 -1.7,5 -3.1,0 -8.3,3.3 -10.4,6.5 -2.3,3.5 -5.4,15 -5.4,20 0,5.7 2.3,13.4 5.4,18.4 1.5,2.4 2.5,4.5 2.3,4.7 -0.2,0.3 -1.6,0 -3,-0.5 -2.4,-0.9 -2.5,-0.9 -1.8,1.7 2.2,7.4 7.5,18.8 11,23.5 5.2,7 8,9.9 9.1,9.2 0.5,-0.3 1.1,0.4 1.5,1.5 0.9,3 13.6,12.8 18.7,14.6 4.4,1.5 11.8,7.6 11.7,9.8 0,0.6 -0.7,0.1 -1.6,-1.2 -3,-4.3 -13.3,-6.8 -16.1,-4 -2,2 -1.3,2.7 2.2,2.1 5.1,-0.8 15.8,4.6 19.7,10 l 3.09993,4.2 -0.7,-3.7 c -0.99993,-5.4 1.6,-10.2 7.1,-12.9 3.8,-1.8 4.9,-1.9 7.4,-0.9 3.6,1.5 5.7,3.8 6.5,7.3 0.8,3.1 -1,3.8 -2.9,1.1 -1,-1.4 -1.5,-1.3 -3.9,0.6 -3.1,2.5 -4.7,5.1 -5.7,9.7 -0.7,2.7 -0.4,3.5 1.6,4.8 1.4,0.9 2.3,1.9 2,2.4 -0.3,0.4 1.5,1.3 4,1.9 4.1,1.1 4.4,1.4 4.4,4.7 0,2.4 -0.6,3.7 -1.9,4.5 -2,1 -4.1,-0.4 -2.7,-1.7 0.3,-0.3 0.1,-1.2 -0.5,-1.9 -0.8,-1 -1.5,-1.1 -3,-0.1 -1.6,1 -2.1,0.9 -2.8,-0.2 -0.5,-0.8 -1.6,-1.1 -3,-0.6 -2.7,0.8 -4.8,7.9 -2.9,10.2 1,1.3 0.9,1.5 -0.7,1.2 -1.2,-0.3 -2.1,-1.4 -2.3,-2.8 -0.3,-1.9 -0.7,-1.5 -2.69993,2.6 -1.2,2.8 -3,5.3 -3.9,5.6 -2.1,0.8 -2,0.4 0.9,-3.9 3.5,-5.2 5.79993,-13.7 4.99993,-18.2 -0.99993,-5.7 -4.69993,-10.4 -10.49993,-13.6 -8.3,-4.5 -16,-3.7 -16,1.8 0,1.9 0.5,2.2 2.9,1.8 3.7,-0.5 5,2.3 2.2,5.1 -3.9,3.9 -9.5,-0.1 -10.8,-7.6 -0.4,-2.8 0,-4 2.5,-6.8 2.8,-3.1 2.9,-3.5 1.5,-5.6 -1.4,-2.2 -1.6,-2.2 -2.8,-0.6 -1.1,1.5 -1.8,1.5 -5.3,0.5 -4.7,-1.4 -6.4,-3.2 -3.1,-3.2 1.2,0 3.1,-0.7 4,-1.6 1.8,-1.6 1.8,-1.8 -0.6,-4.6 -1.4,-1.6 -2.5,-3.7 -2.5,-4.7 0,-0.9 -2,-3.7 -4.5,-6.1 -8.7,-8.5 -17.8,-23.2 -21.5,-34.5 -2.8,-8.5 -4.4,-11.9 -8.1,-16.5 -4.3,-5.4 -6.1,-10.7 -6.8,-20 l -0.6,-8.5 -6.5,0.1 c -7.1,0 -9.4,1.1 -16.5,7.3 l -4,3.6 -0.3,-2.7 c -0.5,-4.4 6.4,-19.3 10.9,-23.3 5.4,-4.9 7.8,-5.2 15,-2.1 6.8,2.9 6.9,3 6.9,1.6 0,-0.5 -0.8,-1 -1.8,-1 -3.2,0 -7.4,-5.4 -7.9,-10.4 -0.3,-2.5 -0.3,-5.2 0.1,-6.1 0.5,-1.5 0.9,-1.4 3.2,0.4 2.6,2.1 7.6,2.7 11.9,1.5 1.2,-0.3 3.6,-3.4 5.9,-7.7 2.1,-4 6.8,-11.4 10.2,-16.4 4.2,-6.1 6.4,-10.3 6.4,-12 -0.1,-2.8 -0.1,-2.7 -1.9,0.8 -2.9,5.9 -8,12.8 -13.6,18.4 -10.7,10.6 -18.4,14 -32,14 -6.5,0 -9.1,-0.5 -13.7,-2.7 -15.1,-7 -24,-26.5 -17.6,-38.8 5.5,-10.7 20.4,-12.1 24.4,-2.4 1.8,4.2 1.1,6.9 -2.4,10.7 -2,2.1 -3.2,2.6 -5.3,2.2 -5.9,-1.3 -3.8,6.3 2.7,9.4 1.6,0.8 5.2,1.7 8.1,1.9 9.3,0.8 16.7,-5.3 23.7,-19.4 9.8,-19.8 10.3,-37.3 1.7,-54.1 -4.9,-9.7 -19.7,-23.5 -34.6,-32.3 -7.7,-4.6 -19.6,-14.2 -22.5,-18.2 -2.9,-4 -5.3,-10.4 -6.5,-17 -0.6,-3.7 -0.7,-3.8 -5.1,-3.8 -5,0 -5.2,-0.3 -6.2,-7.6 l -0.7,-4.9 -6,-0.7 c -3.3,-0.3 -8,-1.5 -10.5,-2.6 -9.2,-4.1 -12.9,-8.1 -27.4,-29.5 -8.5,-12.6 -18.5,-23.2 -26.8,-28.4 -2.9,-1.9 -9,-4.5 -13.6,-6 -7.3,-2.3 -9.4,-2.5 -18.5,-2 -19.8,0.9 -41.1,10.8 -46.6,21.4 -1.5,3 -1.4,11.9 0.3,15.1 2.1,4 5.1,6.4 7.8,6 1.8,-0.2 2.2,-0.8 2,-2.9 -0.2,-1.9 0.5,-3.3 2.8,-5.3 7,-5.8 17,-1.4 17,7.6 0,12.6 -12.2,18.9 -27.6,14.3 -18.7,-5.5 -28.7,-24.9 -22.3,-43 4,-11.5 16.1,-23.5 30.9,-30.4 5.9,-2.8 6.2,-3.1 3.2,-3.1 -2.1,0 -5.6,1.6 -10.6,4.8 -4.1,2.7 -11.7,6.8 -17,9.3 -9.7,4.5 -11.6,6.4 -11.6,11.5 0,2.7 1.7,6.5 3.3,7.5 1.9,1.300003 -0.5,2.900003 -4.3,2.900003 -5.9,0 -10.6,-2.700003 -13,-7.400003 -2.6,-5.3 -2.6,-3.1 0.1,3.6 2.2,5.6 2.1,10.7 -0.3,13.5 -3.5,4.2 -19.8,11.3 -26,11.3 h -3.1 l 4,-4.3 c 6.2,-6.7 7.1,-8.7 7.5,-15.7 l 0.3,-6.4 -7.5,-0.2 c -8.8,-0.3 -14,-2.1 -23,-8.1 -3.6,-2.4 -10.1,-5.5 -14.5,-6.9 -7.7,-2.4 -16.1,-6.6 -23.6,-11.7 -1.9,-1.3 -5.4,-2.6 -7.8,-3 -2.3,-0.3 -5,-1.2 -6,-2.1 -2.5,-2.3 -3.7,-2 -5.1,1.4 -1.5,3.5 -2.6,3.2 -3.5,-1.2 -0.6,-2.4 -0.3,-3.5 0.9,-4.4 1.5,-1 1.4,-1.2 -0.6,-1.7 l -2.2,-0.6 2.2,-2.4 c 2.7,-2.8 2.7,-3.9 0.4,-6 -1.6,-1.5 -1.7,-1.4 -1.7,2.4 0,5.7 -4,9.4 -10,9.3 -5.5,-0.1 -8.7,-2.6 -8.3,-6.3 0.2,-2 0.9,-2.7 3.2,-2.9 2.6,-0.3 2.8,-0.1 2.4,2.2 -0.7,3.5 0.7,4.2 3.9,2.1 2.2,-1.5 2.5,-2.2 2,-5.6 -0.6,-4.6 -4.5,-10.2 -9.1,-13 -4.4,-2.8 -14.19358,-0.662486 -20.8,1.5 -1.60849,0.526508 -4.3,2.7 -4.3,2.7 m -3,0 c 0,0 -2.69151,-2.173492 -4.3,-2.7 -6.60642,-2.162486 -16.4,-4.3 -20.8,-1.5 -4.6,2.8 -8.5,8.4 -9.1,13 -0.5,3.4 -0.2,4.1 2,5.6 3.2,2.1 4.6,1.4 3.9,-2.1 -0.4,-2.3 -0.2,-2.5 2.4,-2.2 2.3,0.2 3,0.9 3.2,2.9 0.4,3.7 -2.8,6.2 -8.3,6.3 -6,0.1 -10,-3.6 -10,-9.3 0,-3.8 -0.1,-3.9 -1.7,-2.4 -2.3,2.1 -2.3,3.2 0.4,6 l 2.2,2.4 -2.2,0.6 c -2,0.5 -2.1,0.7 -0.6,1.7 1.2,0.9 1.5,2 0.9,4.4 -0.9,4.4 -2,4.7 -3.5,1.2 -1.4,-3.4 -2.6,-3.7 -5.1,-1.4 -1,0.9 -3.7,1.8 -6,2.1 -2.4,0.4 -5.9,1.7 -7.8,3 -7.5,5.1 -15.9,9.3 -23.6,11.7 -4.4,1.4 -10.9,4.5 -14.5,6.9 -9,6 -14.2,7.8 -23,8.1 l -7.5,0.2 0.3,6.4 c 0.4,7 1.3,9 7.5,15.7 l 4,4.3 h -3.1 c -6.2,0 -22.5,-7.1 -26,-11.3 -2.4,-2.8 -2.5,-7.9 -0.3,-13.5 2.7,-6.7 2.7,-8.9 0.1,-3.6 -2.4,4.7 -7.1,7.400003 -13,7.400003 -3.8,0 -6.2,-1.6 -4.3,-2.900003 1.6,-1 3.3,-4.8 3.3,-7.5 0,-5.1 -1.9,-7 -11.6,-11.5 -5.3,-2.5 -12.9,-6.6 -17,-9.3 -5,-3.2 -8.5,-4.8 -10.6,-4.8 -3,0 -2.7,0.3 3.2,3.1 14.8,6.9 26.9,18.9 30.9,30.4 6.4,18.1 -3.6,37.5 -22.3,43 -15.4,4.6 -27.6,-1.7 -27.6,-14.3 0,-9 10,-13.4 17,-7.6 2.3,2 3,3.4 2.8,5.3 -0.2,2.1 0.2,2.7 2,2.9 2.7,0.4 5.7,-2 7.8,-6 1.7,-3.2 1.8,-12.1 0.3,-15.1 -5.5,-10.6 -26.8,-20.5 -46.6,-21.4 -9.1,-0.5 -11.2,-0.3 -18.5,2 -4.6,1.5 -10.7,4.1 -13.6,6 -8.3,5.2 -18.3,15.8 -26.8,28.4 -14.5,21.4 -18.2,25.4 -27.4,29.5 -2.5,1.1 -7.2,2.3 -10.5,2.6 l -6,0.7 -0.7,4.9 c -1,7.3 -1.2,7.6 -6.2,7.6 -4.4,0 -4.5,0.1 -5.1,3.8 -1.2,6.6 -3.6,13 -6.5,17 -2.9,4 -14.8,13.6 -22.5,18.2 -8.8,5.2 -22.9,16.6 -27.6,22.2 -9.199987,11.1 -12.899987,20.9 -12.899987,34.4 0,18.3 10.099997,40.3 21.599987,47 3.7,2.2 5.4,2.6 9.7,2.2 2.9,-0.2 6.5,-1.1 8.1,-1.9 6.5,-3.1 8.6,-10.7 2.7,-9.4 -2.1,0.4 -3.3,-0.1 -5.3,-2.2 -3.5,-3.8 -4.2,-6.5 -2.4,-10.7 2.7,-6.5 10.8,-8.4 18.1,-4.3 15.3,8.5 8.3,36.4 -11.3,45.5 -10.2,4.8 -26.4,3.3 -35.999987,-3.1 -8.5,-5.7 -18.6,-17.2 -23.3,-26.6 -1.8,-3.5 -1.8,-3.6 -1.9,-0.8 0,1.7 2.2,5.9 6.4,12 3.4,5 8.1,12.4 10.2,16.4 2.3,4.3 4.7,7.4 5.9,7.7 4.3,1.2 9.299987,0.6 11.899987,-1.5 2.3,-1.8 2.7,-1.9 3.2,-0.4 0.4,0.9 0.4,3.6 0.1,6.1 -0.5,5 -4.7,10.4 -7.89999,10.4 -0.999997,0 -1.799997,0.5 -1.799997,1 0,1.4 0.1,1.3 6.899987,-1.6 7.2,-3.1 9.6,-2.8 15,2.1 4.5,4 11.4,18.9 10.9,23.3 l -0.3,2.7 -4,-3.6 c -7.1,-6.2 -9.4,-7.3 -16.5,-7.3 l -6.5,-0.1 -0.6,8.5 c -0.7,9.3 -2.5,14.6 -6.799987,20 -3.7,4.6 -5.3,8 -8.1,16.5 -3.7,11.3 -12.8,26 -21.5,34.5 -2.5,2.4 -4.5,5.2 -4.5,6.1 0,1 -1.1,3.1 -2.5,4.7 -2.4,2.8 -2.4,3 -0.6,4.6 0.9,0.9 2.8,1.6 4,1.6 3.3,0 1.6,1.8 -3.1,3.2 -3.5,1 -4.2,1 -5.3,-0.5 -1.2,-1.6 -1.4,-1.6 -2.8,0.6 -1.4,2.1 -1.3,2.5 1.5,5.6 2.5,2.8 2.9,4 2.5,6.8 -1.3,7.5 -6.9,11.5 -10.8,7.6 -2.8,-2.8 -1.5,-5.6 2.2,-5.1 2.4,0.4 2.9,0.1 2.9,-1.8 0,-5.5 -7.7,-6.3 -16,-1.8 -5.8,3.2 -9.5,7.9 -10.5,13.6 -0.9,4.5 1.5,13.1 5,18.2 2.7,4 2.8,4.6 0.6,3.8 -0.7,-0.2 -2.3,-2.7 -3.6,-5.4 -2,-4.2 -2.4,-4.6 -2.7,-2.7 -0.2,1.4 -1.1,2.5 -2.3,2.8 -1.6,0.3 -1.7,0.1 -0.7,-1.2 1.9,-2.3 -0.2,-9.4 -2.9,-10.2 -1.4,-0.5 -2.5,-0.2 -3,0.6 -0.7,1.1 -1.2,1.2 -2.8,0.2 -1.5000004,-1 -2.2000004,-0.9 -3.0000004,0.1 -0.6,0.7 -0.8,1.6 -0.5,1.9 1.4,1.3 -0.7,2.7 -2.7,1.7 -1.3,-0.8 -1.9,-2.1 -1.9,-4.5 0,-3.3 0.3,-3.6 4.4,-4.7 2.5000002,-0.6 4.3000004,-1.5 4.0000004,-1.9 -0.3,-0.5 0.6,-1.5 2,-2.4 2,-1.3 2.3,-2.1 1.6,-4.8 -1,-4.6 -2.6,-7.2 -5.7000004,-9.7 -2.4,-1.9 -2.9,-2 -3.9,-0.6 -1.9,2.7 -3.7,2 -2.9,-1.1 0.8,-3.5 2.9,-5.8 6.5,-7.3 2.5000004,-1 3.6000004,-0.9 7.4000004,0.9 5.5,2.7 8.1,7.5 7.1,12.9 l -0.7,3.7 3.1,-4.2 c 3.9,-5.4 14.6,-10.8 19.7,-10 3.5,0.6 4.2,-0.1 2.2,-2.1 -2.8,-2.8 -13.1,-0.3 -16.1,4 -0.9,1.3 -1.6,1.8 -1.6,1.2 -0.1,-2.2 7.3,-8.3 11.7,-9.8 5.1,-1.8 17.8,-11.6 18.7,-14.6 0.4,-1.1 1,-1.8 1.5,-1.5 1.1,0.7 3.9,-2.2 9.1,-9.2 3.5,-4.7 8.8,-16.1 11,-23.5 0.7,-2.6 0.6,-2.6 -1.8,-1.7 -1.4,0.5 -2.8,0.8 -3,0.5 -0.2,-0.2 0.8,-2.3 2.3,-4.7 3.1,-5 5.4,-12.7 5.4,-18.4 0,-5 -3.1,-16.5 -5.4,-20 -2.1,-3.2 -7.3,-6.5 -10.4,-6.5 -3,0 -3.9,-2.6 -1.7,-5 1.7,-1.9 1.6,-1.9 -7.7,-1.7 -13.8,0.3 -17.6,3.4 -18.5,15.1 -0.4,4.5 -1,6.7 -2.1,7.1 -2.1,0.8 -5.7,-1.9 -7.2,-5.4 -0.7,-1.8 -2,-3.1 -3,-3.1 -2.6,0 -5.1,-3.4 -5.6,-7.7 -1.2,-9.5 7.5,-17.3 20.4,-18.1 6.2,-0.4 6.3,-0.5 4.5,-2.4 -1.7,-1.9 -1.7,-2 0.2,-3.4 5,-3.6 19.3,0 27.4,7 2.3,2 2.3,2.1 1.4,0.1 -0.6,-1.1 -2.2,-4.6 -3.7,-7.7 -3.1,-7 -7.6,-10.5 -19,-14.9 -4.4,-1.7 -9.8,-4 -11.9,-5.1 -5.2,-2.6 -7.6,-8.1 -7.7,-17 0,-7.2 0.8,-8.2 4.6,-5.3 1,0.8 2.1,1.5 2.4,1.5 0.3,0 0.5,-3.5 0.5,-7.8 0,-17.5 9.6,-30.2 22.8,-30.2 1.5,0 2.7,0.2 2.7,0.5 0,0.3 -1.5,2.8 -3.4,5.6 -3.9,5.5 -5.1,11.3 -4.3,19.3 0.5,5 3.4,12.6 4.8,12.6 1.1,0 1.8,-5.8 2.2,-18.5 0.3,-10.2 0.9,-13.3 3.5,-20.8 5.1,-14.7 11.8,-25.1 18.8,-29.3 1.5,-0.9 0.6,-1.1 -4.6,-1.1 -4.4,0.1 -7.6,-0.4 -9.8,-1.6 -3.6,-2 -7.2,-7 -7.2,-10.3 0,-1.1 -1.3,-3.3 -2.9,-4.8 -1.6,-1.6 -3.9,-5 -5.1,-7.7 -1.1,-2.7 -2.7,-4.9 -3.4,-4.9 -2.1,0 -7.6,-6.8 -7.6,-9.4 0,-1.3 1,-3.6 2.1,-5.1 1.9,-2.4 2.7,-2.6 7.2,-2.3 4.9,0.3 5,0.3 9.1,-5 2.2,-2.9 4.2,-4.8 4.4,-4.3 0.2,0.6 1.6,0.6 3.5,0 1.8,-0.5 4.4,-0.9 5.9,-0.9 3.4,0 4.3,-2.5 2.7,-8.2 -1.9,-7.4 -12.6,-14.8 -21.1,-14.8 -2.7,0 -2.8,0.2 -2.8,5.2 0,9.7 -6.5,18.2 -15.8,20.8 -5.8,1.5 -12.4,-0.7 -18.6,-6.1 l -4.5,-4 -3.7,7.8 c -2.9,6 -3.8,9.2 -4.2,14.8 -0.8,12.1 4,24.6 13,34.1 5.9,6.2 11.2,9 18.9,9.9 l 5.5,0.7 -0.4,-3.5 c -0.3,-2.8 0.1,-3.8 2.3,-5.6 3.8,-2.9 7.1,-2.7 10.6,0.8 4.7,4.8 3.4,10.3 -3.5,14.2 -5.7,3.3 -19.8,3.4 -26.6,0.2 -15,-7.1 -25.1000004,-22.5 -27.9000004,-42.5 -1.8,-12.7 1.3,-24.3 9.1000004,-34.1 2.9,-3.8 3,-3.8 1.4,-7.7 -3.7,-9.3 -3,-20.5 2,-30.7 l 2.5,-5.2 -5.4,-5.5 c -3,-3.1 -7.0000004,-8.599997 -9.0000004,-12.3 -11,-21.2 -5.2999999,-41.7 14.0000004,-50.6 6.3,-2.9 19.1,-3.1 24.1,-0.4 l 3.3,1.8 -1.8,-3.3 c -1.2,-2.3 -1.7,-5.5 -1.7,-10.3 0,-9.5 2.9,-15.9 10.4,-22.7999998 C 60.250283,2.7 67.450283,0 76.450283,0 c 11.7,0 25.999987,6 34.799987,14.6 l 5.5,5.4 5.5,-2.6 c 9.9,-4.5 22.7,-5 33,-1.3 3,1.1 3.7,1 6.8,-1.4 1.8,-1.4 6.1,-3.9 9.3,-5.3999998 8.5,-3.9000002 23.6,-4.5000002 35,-1.4 16.2,4.4999998 28.6,13.4999998 34.2,24.7999998 3.7,7.7 4,19.4 0.5,26 -3.6,6.9 -9.6,8.4 -15.1,3.7 -3.8,-3.2 -4,-6.6 -0.5,-10 2,-2 3.3,-2.5 6,-2.2 l 3.4,0.4 -0.6,-5 c -1.6,-13.3 -11.9,-23.5 -29.8,-29.6 -10.7,-3.6 -26.2,-2 -35.5,3.7 -1.4,1 -2.7,1.8 -2.9,1.9 -0.1,0 1.3,1.8 3.2,3.9 9,9.8 8.9,19.8 -0.5,27.8 -4.8,4.2 -10.2,6 -16.3,5.5 l -4.1,-0.3 0.3,4 c 1,12.5 12.8,22.5 23,19.5 3.6,-1.1 3.7,-1.3 3.4,-5.1 -0.6,-5.7 0.4,-8.3 4.3,-12.1 3.2,-2.9 3.5,-3.7 3,-6.9 -0.9,-5.2 2.5,-9.1 8,-9.1 3.3,0 4.5,0.7 8.2,4.6 2.3,2.5 4.8,4.6 5.5,4.6 0.8,0 2.9,1.1 4.8,2.4 1.9,1.2 5.7,2.5 8.4,2.8 8.8,1 13.9,7.2 13.4,16.3 l -0.3,5.1 5,-5.1 c 10.2,-10.4 32,-18.5 50.2,-18.5 5.5,0 11.5,-0.6 13.6,-1.3 l 3.8,-1.4 -3.8,-1.6 c -6.8,-3 -12.8,-3.8 -18.5,-2.6 -6,1.3 -10.3,3.2 -13.5,6.1 -6.2,5.7 -5.3,-7.3 1,-14 5.1,-5.5 16.3,-9.4 26.9,-9.4 7.1,0 7.3,-0.2 3.9,-4.1 -1.3,-1.6 -1.3,-1.9 -0.1,-2.7 3.8,-2.4 18,-0.3 21.9,3.3 1.3,1.2 4.7,7.2 7.7,13.2 7,14.3 9,16.5 18.9,20.4 l 7.9,3.1 -3.1,-3.2 c -4.5,-4.7 -8.3,-13.3 -8.3,-19 0,-7.6 1.5,-9.5 5,-6.3 1.6,1.5 1.8,1 2.2,-5.9 0.8,-12.4 6.6,-18.6 17.5,-18.6 5.2,0 9.9,2.9 8.9,5.5 -0.3,0.8 1.1,1.8 3.4,2.8 4,1.6 6.4,4.5 5.1,6.5 -0.4,0.7 -3.2,1.5 -6.2,1.8 -13.2,1.3 -17.5,6.6 -16.3,19.8 0.6,6.5 0.9,7.3 2.1,6 2.4,-2.4 4.2,-1.6 5.2,2.4 2.3,8.4 13.2,13.5 28.1,13.3 8.2,-0.2 12.4,-1.3 18.2,-5 5.1,-3.2 6.1,-3.1 4.7,0.6 -1.1,2.9 -1.1,2.9 11.1,-1.8 13.1,-5 23.1,-12.4 30.5,-22.5 5.1,-6.9 8.2,-10 9.1,-9.1 0.4,0.4 -0.1,1.8 -1,3.3 -1,1.4 -1.6,2.8 -1.3,3 0.3,0.3 1.4,-1.1 2.6,-3 1.2,-1.9 3.6,-4.4 5.4,-5.6 1.8,-1.2 2.4,-1.9 1.5,-1.7 -2.7,0.9 -8.3,-1.1 -11.2,-3.9 -4.3,-4.4 -3.1,-10.3 2.5,-12.3 3.5,-1.2 6.2,-0.4 3.5,1.1 -2.5,1.4 -0.3,4.6 4.7,6.9 5.9,2.6 8.3,2.5 9.1,-0.6 0.4,-1.4 1,-2.3 1.5,-2 0.5,0.2 1.2,-0.2 1.5,-1.1 0.9,-2.4 0.7,-3.1 -0.4,-1.4 -0.6,0.9 -1,1 -1,0.3 0,-1.9 3.7,-3.5 7.3,-3.1 3.5,0.3 4.6,3.3 1.3,3.3 -2.2,0 -3.3,2 -1.7,3 1.6,1 1.3,2.3 -0.6,2.7 -1.6,0.3 -1.5,0.6 0.6,2.7 1.9,1.9 3,2.2 6.4,1.8 3.6,-0.5 3.8,-0.4 2.4,1.1 -1.5,1.4 -1.3,1.8 2.3,3.8 M 86.350283,312.4 c -4.2,-5.5 -5.8,-8.4 -8.5,-15.6 -3,-8.1 -3.5,-12.1 -3.4,-26.8 0,-12.1 0.3,-14.2 2.6,-20.2 3.2,-8 8.3,-16.2 13.9,-22.3 4.4,-4.8 4.4,-5.3 0,-3.1 -4.8,2.5 -10.2,9.6 -14.6,19 -12.4,26.5 -9.9,48.8 7.5,67.9 2.9,3.2 5.4,5.7 5.6,5.7 0.2,0 -1.2,-2.1 -3.1,-4.6 z M 948.65027,299.3 c 9.1,-17.2 8.7,-34.6 -1.3,-55.9 -4.4,-9.4 -9.8,-16.5 -14.6,-19 -4.4,-2.2 -4.4,-1.7 0,3.1 5.6,6.1 10.7,14.3 13.9,22.3 2.3,6 2.6,8.1 2.6,20.2 0.1,14.7 -0.4,18.7 -3.4,26.8 -2.7,7.1 -4.2,10 -8.5,15.8 -3.4,4.7 -3.3,4.6 2.3,-1.3 3.2,-3.4 7.3,-8.8 9,-12 z m -827.6,-98.3 c 2.1,-1.1 4.5,-1.7 5.3,-1.4 2,0.8 10.7,-6 18.5,-14.2 6.6,-7.2 8.5,-10.2 9.5,-15.7 0.7,-3.6 0.7,-3.7 -2.4,-3.7 -2.6,0 -3.1,0.4 -3.1,2.3 0,3.6 -3.2,5.9 -7.6,5.5 -3.1,-0.2 -4.3,-0.9 -5.9,-3.5 -2.6,-4.1 -4,-4.1 -7.9,0.1 -3.7,4 -6.6,5.6 -9.9,5.6 -2.3,0 -2.4,0.3 -3,9.3 -0.3,5 -1.3,11.2 -2.1,13.6 -0.9,2.4 -1.6,4.6 -1.6,4.9 0,0.9 6.5,-0.8 10.2,-2.8 z m 791.8,2.6 c 0,-0.2 -0.7,-2.3 -1.6,-4.7 -0.8,-2.4 -1.8,-8.6 -2.1,-13.6 -0.6,-9 -0.7,-9.3 -3,-9.3 -3.3,0 -6.2,-1.6 -9.9,-5.6 -3.9,-4.2 -5.3,-4.2 -7.9,-0.1 -1.6,2.6 -2.8,3.3 -5.9,3.5 -4.4,0.4 -7.6,-1.9 -7.6,-5.5 0,-1.9 -0.5,-2.3 -3.1,-2.3 -3.1,0 -3.1,0.1 -2.4,3.7 1,5.5 2.9,8.5 9.5,15.7 7.8,8.2 16.5,15 18.5,14.2 0.8,-0.3 3.2,0.3 5.3,1.3 5.4,2.7 10.2,4 10.2,2.7 z m -767.5,-33.6 c 1.2,-2 -1.7,-4.2 -4.4,-3.5 -3.2,0.8 -3.3,0.9 -2.5,2.9 0.7,1.8 5.9,2.2 6.9,0.6 z m 739.9,-0.6 c 0.8,-2 0.7,-2.1 -2.5,-2.9 -2.7,-0.7 -5.6,1.5 -4.4,3.5 1,1.6 6.2,1.2 6.9,-0.6 z m -766,-5 c 4.4,-4.3 5.5,-13.2 3.1,-24.9 -0.9,-4.4 -1.9,-10.3 -2.2,-13.1 -0.4,-4.8 -0.3,-5.2 2.8,-7.8 3.7,-3.1 5.1,-3.1 18.9,-0.1 16.8,3.7 30,0.8 30,-6.6 0,-1 -3,-3.1 -8.2,-5.7 -17.1,-8.399997 -25.7,-22.4 -26.2,-42.4 -0.1,-4.7 -0.7,-9.2 -1.3,-10 -2.4,-3 -4.3,-7.9 -4.3,-11.2 0,-4.5 3.9,-7.9 8.6,-7.4 2.9,0.3 3.5,-0.2 6.8,-5.1 2,-2.9 3.6,-5.7 3.6,-6.2 0,-3 -18,-2.1 -24.9,1.3 -4.9,2.4 -4.8,2.2 -3.5,10.2 l 0.6,3.8 -2.8,-1.8 c -1.6,-1 -3.2,-2.3 -3.6,-2.8 -0.3,-0.5 -3.2,-0.9 -6.2,-0.7 -3.1,0.1 -5.6,-0.2 -5.6,-0.6 0,-0.5 1.6,-2.8 3.6,-5.1 4.1,-4.9 3.8,-6 -2.8,-11.4 C 94.350283,7.5000002 78.550283,3.6 66.650283,7.2 c -8.8,2.6000006 -17.8,14.5 -17.8,23.6 0,4.8 1.1,7.4 4.6,11.3 1.9,2 2.3,3.2 1.8,5.7 -0.6,2.8 -0.9,3 -2.8,2 -1.7,-0.9 -1.9,-0.8 -0.8,0.3 3.8,4.1 -3.1,3.9 -9.8,-0.3 -6.6,-4.1 -12.2,-4.2 -20.3,-0.4 C 8.3502826,55.7 3.0502826,68.3 7.4502826,83.1 c 2.4000002,8.2 5.7000004,14 10.9000004,19.2 4.9,5 6.5,5.6 8.6,3.1 0.7,-0.8 2.5,-2.2 3.9,-2.9 2.7,-1.4 2.7,-1.3 3.9,2.6 0.9,3.1 1,4.4 0,5.5 -0.9,1.1 -0.8,1.4 0.5,1.4 1,0 3.2,1.6 5,3.5 3.8,4 3.3,4.2 -5.9,2.1 -6.7,-1.6 -6.4,-1.8 -9.7,5.2 -2.3,5 -3.4,13.4 -2.4,18.7 0.8,4.1 1.1,4.1 8.3,0 4.8,-2.7 5.3,-3.3 5.3,-6.5 0,-5.4 2.3,-8 7.1,-8 4.4,0 9.8,1.9 11.7,4.2 0.9,1.1 2.5,1.4 6,1 7.2,-0.6 20.7,2.3 28.9,6.3 8.6,4.3 15.899987,11.8 20.299987,21.1 2.5,5.2 3.5,6.4 5.5,6.4 1.3,0 3.1,-0.7 3.9,-1.6 z m 794.6,-4.8 c 4.4,-9.3 11.7,-16.8 20.3,-21.1 8.2,-4 21.7,-6.9 28.9,-6.3 3.5,0.4 5.1,0.1 6,-1 1.9,-2.3 7.3,-4.2 11.7,-4.2 4.8,0 7.1,2.6 7.1,8 0,3.2 0.5,3.8 5.3,6.5 7.19993,4.1 7.49993,4.1 8.29993,0 1,-5.3 -0.1,-13.7 -2.39993,-18.7 -3.3,-7 -3,-6.8 -9.7,-5.2 -9.2,2.1 -9.7,1.9 -5.9,-2.1 1.8,-1.9 4,-3.5 5,-3.5 1.3,0 1.4,-0.3 0.5,-1.4 -1,-1.1 -0.9,-2.4 0,-5.5 1.2,-3.9 1.2,-4 3.9,-2.6 1.4,0.7 3.2,2.1 3.9,2.9 2.1,2.5 3.69993,1.9 8.59993,-3.1 5.2,-5.2 8.5,-11 10.9,-19.2 4.4,-14.8 -0.9,-27.4 -14.1,-33.7 -8.09993,-3.8 -13.69993,-3.7 -20.29993,0.4 -6.7,4.2 -13.6,4.4 -9.7,0.3 1,-1.1 0.8,-1.2 -0.9,-0.3 -1.9,1 -2.2,0.8 -2.8,-2 -0.5,-2.5 -0.1,-3.7 1.8,-5.7 3.5,-3.9 4.6,-6.5 4.6,-11.3 0,-9.1 -9,-20.9999994 -17.8,-23.6 -11.9,-3.6 -27.7,0.3000002 -39,9.6 -6.6,5.4 -6.9,6.5 -2.8,11.4 2,2.3 3.6,4.6 3.6,5.1 0,0.4 -2.5,0.7 -5.6,0.6 -3,-0.2 -5.9,0.2 -6.2,0.7 -0.4,0.5 -2,1.8 -3.6,2.8 l -2.8,1.8 0.6,-3.8 c 1.3,-8 1.4,-7.8 -3.5,-10.2 -6.9,-3.4 -24.9,-4.3 -24.9,-1.3 0,0.5 1.6,3.3 3.6,6.2 3.3,4.9 3.9,5.4 6.8,5.1 4.7,-0.5 8.6,2.9 8.6,7.4 0,3.3 -1.9,8.2 -4.3,11.2 -0.6,0.8 -1.2,5.3 -1.3,10 -0.5,20 -9.1,34.000003 -26.1,42.4 -5.3,2.6 -8.3,4.7 -8.3,5.7 0,7.4 13.2,10.3 30,6.6 13.8,-3 15.2,-3 18.9,0.1 3.1,2.6 3.2,3 2.8,7.8 -0.3,2.8 -1.3,8.7 -2.2,13.1 -3.1,15 0,26.5 7,26.5 2,0 3,-1.2 5.5,-6.4 z m -778.6,-1.9 c 3.2,-7.6 11.9,-11.7 17.1,-8.3 1.4,0.9 3.6,3.7 4.8,6.2 1.8,3.8 2.6,4.4 4.7,4.2 2.2,-0.3 2.5,-0.9 2.8,-4.4 0.3,-3.8 0,-4.2 -2.8,-5.4 -3.7,-1.5 -7,-5.5 -7,-8.4 0.1,-3.6 3.5,-8.8 7.6,-11.3 l 3.9,-2.5 -5,0.5 c -6.6,0.7 -22.5,-1 -28.2,-2.9 -2.5,-0.9 -4.7,-1.4 -4.9,-1.2 -0.2,0.2 0.3,2.5 1.1,5.2 2.4,8 3.7,20.8 2.7,26.4 -1.3,7.2 0.5,8.3 3.2,1.9 z m 756.4,-1.8 c -1,-5.7 0.2,-18.4 2.7,-26.5 0.8,-2.7 1.3,-5 1.1,-5.2 -0.2,-0.2 -2.4,0.3 -4.9,1.2 -5.7,1.9 -21.6,3.6 -28.2,2.9 l -5,-0.5 3.9,2.5 c 4.1,2.5 7.5,7.7 7.6,11.3 0,2.9 -3.3,6.9 -7,8.4 -2.8,1.2 -3.1,1.6 -2.8,5.4 0.3,3.5 0.6,4.1 2.8,4.4 2.1,0.2 2.9,-0.4 4.7,-4.2 2.9,-5.8 6.2,-8 11,-7.3 3.9,0.7 9.8,5.6 10.9,9.1 2,6.5 4.4,5.3 3.2,-1.5 z m -740,4.1 c 2,0 2.1,-0.3 1.2,-2 -2.6,-4.9 -9.4,-4.4 -12.9,0.9 l -1.6,2.4 5.5,-0.6 c 3,-0.4 6.5,-0.7 7.8,-0.7 z m 732.3,-0.8 c -2.7,-5.1 -9.1,-6.2 -12.4,-2.1 l -1.9,2.4 4.3,0.6 c 2.4,0.3 5.9,0.7 7.7,0.7 2.9,0.2 3.2,0 2.3,-1.6 z M 50.350283,156.5 c 3.2,-2.4 3.5,-3 3.5,-8.1 V 143 h -3.7 c -2.1,0 -5.4,0.5 -7.3,1 -5,1.4 -14.5,7.2 -14.5,8.9 0,0.8 2.5,2.7 5.5,4.3 6.6,3.5 11.3,3.3 16.5,-0.7 z m 939.499987,0.7 c 3,-1.6 5.5,-3.5 5.5,-4.3 0,-1.7 -9.5,-7.5 -14.5,-8.9 -1.9,-0.5 -5.2,-1 -7.2,-1 h -3.8 v 5.3 c 0,5.8 0.9,7.2 6.5,10.1 4.3,2.3 7.3,2 13.5,-1.2 z m -805.8,-12.2 c 11.2,-5.8 26.6,-23.9 29.8,-35 1,-3.5 0.6,-3.5 -7,-0.3 -1.9,0.8 -8.3,1.7 -14.2,2 l -10.8,0.6 v 3 c 0,2.3 -1.1,4.1 -4.5,7.3 -5,4.6 -5.4,5.4 -2.6,5.4 1,0 3,0.9 4.5,2.1 4.9,3.9 2.3,12.6 -3.6,11.7 -3.2,-0.4 -3,-3.3 0.2,-3.3 2.1,0 2.5,-0.5 2.5,-3 0,-2.6 -0.4,-3 -3.1,-3.3 l -3.2,-0.3 -0.4,7.3 c -0.3,4 -0.3,7.7 0,8.2 0.7,1.3 7.8,0 12.4,-2.4 z m 668.2,0.8 c 0,-1 -0.1,-4.5 -0.2,-7.9 l -0.2,-6 -3.2,0.3 c -2.9,0.3 -3.3,0.6 -3.3,3.3 0,2.5 0.4,3 2.5,3 3.2,0 3.4,2.9 0.2,3.3 -5.9,0.9 -8.5,-7.8 -3.6,-11.7 1.5,-1.2 3.5,-2.1 4.5,-2.1 2.8,0 2.4,-0.8 -2.6,-5.4 -3.4,-3.2 -4.5,-5 -4.5,-7.3 v -3 l -10.7,-0.6 c -6,-0.3 -12.4,-1.2 -14.3,-2 -7.6,-3.2 -8,-3.2 -7,0.3 3.2,11 18.8,29.4 29.6,34.8 5.6,2.8 6.5,3.1 9.9,2.9 2.2,-0.1 3,-0.7 2.9,-1.9 z m -686.4,-6.5 c 0,-5.5 0,-5.6 -2,-3.8 -2.2,2 -2.6,5.5 -0.9,8.6 1.7,3.2 2.9,1.2 2.9,-4.8 z m 696,0.7 c 0,-1.5 -0.9,-3.5 -2,-4.5 -2,-1.8 -2,-1.7 -2,3.7 0,3 0.3,5.8 0.7,6.2 1.1,1.1 3.3,-2.5 3.3,-5.4 z M 46.650283,134.6 c 2.3,-0.6 4.2,-1.4 4.2,-1.8 0,-1.2 -3.7,-2.8 -6.7,-2.8 -3.5,0 -5.3,1.6 -5.3,4.8 0,1.9 0.4,2.3 1.8,1.7 0.9,-0.5 3.6,-1.3 6,-1.9 z m 938.199987,0.1 c 0,-3.1 -1.8,-4.7 -5.3,-4.7 -5.2,0 -9.6,3.9 -4.4,4 1.2,0.1 3.6,0.7 5.2,1.5 4.2,1.9 4.5,1.8 4.5,-0.8 z m -764,-40.2 c 0,-1.7 -0.2,-1.7 -1,-0.5 -0.5,0.8 -1,2.4 -1,3.500003 0,1.7 0.2,1.7 1,0.5 0.5,-0.800003 1,-2.400003 1,-3.500003 z m 583.1,-0.2 c -0.9,-1.6 -1,-1.6 -1.1,-0.1 0,0.9 0.3,2.5 0.7,3.500003 0.7,1.6 0.8,1.7 1.1,0.1 0.2,-1.000003 -0.1,-2.500003 -0.7,-3.500003 z m -559.9,-15.3 c 8.2,-5.7 19.4,-10 30,-11.3 16,-2 36,2.2 49.5,10.4 l 4.8,2.9 -4.5,-4 c -2.5,-2.2 -8.4,-6 -13.1,-8.4 -19,-9.6 -40.5,-8.1 -63.8,4.5 -9,4.8 -10.9,6.5 -14.1,12.2 l -2.4,4.2 4,-3.3 c 2.1,-1.8 6.5,-5.1 9.6,-7.2 z m 546.7,6 c -3.1,-5.4 -5.1,-7.1 -14,-11.9 -23.3,-12.6 -44.8,-14.1 -63.8,-4.5 -4.7,2.4 -10.6,6.2 -13.1,8.4 l -4.5,4 4.8,-2.9 c 13.5,-8.2 33.5,-12.4 49.5,-10.4 14.1,1.8 27.1,7.8 39.2,18.2 1.9,1.7 3.6,3.1 3.8,3.1 0.2,0 -0.7,-1.8 -1.9,-4 z m -578.2,-20.4 c -2.3,-2.4 -7.8,-5.6 -9.7,-5.6 -0.5,0 -1,0.8 -1,1.8 0,2.4 5.8,6.1 9.7,6.1 l 3.2,0.1 z m 605.8,0.2 c 3.2,-2.2 4.8,-5.8 2.5,-5.8 -1.9,0 -7.4,3.2 -9.7,5.6 l -2.2,2.4 h 3 c 1.6,0 4.5,-1 6.4,-2.2 z m -657.1,-13.7 c 2.6,-2.3 4.6,-6.6 4.6,-10 0,-3.1 -2.9,-9.3 -5.7,-12.1 -1.3,-1.3 -1.7,-1.2 -4,1.5 -3.5,4.2 -7,12.1 -7.7,17.7 -0.7,4.3 -0.5,4.7 1.6,5 4.1,0.6 9.3,-0.4 11.2,-2.1 z m 714,-3 c -0.7,-5.5 -4.2,-13.4 -7.7,-17.6 -2.3,-2.7 -2.7,-2.8 -4,-1.5 -2.8,2.8 -5.7,9 -5.7,12.1 0,8.3 6.8,13.5 15.8,12 2.1,-0.3 2.2,-0.7 1.6,-5 z m -735.1,-3.7 c 1,-3.1 1.5,-5.9 1.2,-6.3 -1.1,-1 -6,2.4 -6.3,4.5 -0.3,2.4 1.4,7.4 2.6,7.4 0.4,0 1.6,-2.5 2.5,-5.6 z m 748.2,1.2 c 0.8,-3.4 0.7,-4.1 -1.4,-5.7 -2.6,-2.2 -5.4,-2.5 -4.9,-0.6 0.2,0.6 1,3.4 1.7,6 1.6,5.5 3.2,5.6 4.6,0.3 z"
         id="path38"
         inkscape:label="mainborderbottom"
         style="display:inline;stroke-width:0.1"
         sodipodi:nodetypes="cccscsscsccscccccccssccsccccccccccccsccsccccsccsccccccscccccscscccccccccccccccccccccccccccscsccccccccccccccccccccccccsscscccccssccsccsccsscsssscccccccccccscccccscsccccccccccscccccccccccccsccccccccccccccscscccccsccscccccccccccsscccccccccsccccccccccscscccccccccccccscccsccscscccscccccscccccccccccscccccccaccacccccccscccccccccccscccccscccscsccscccscccccccccccccscsccscccccccccccccccccsscccccccccccsccscccccscsccccccccccccccscccccccccccccsccccccccccscscccccscccccccccccsssscssccsccsccsscccccscssccccccccccccccccccccccccscsccccccccccccccccccccccccccscscccccsccccccsccsccccsccsccccccccccccsccsscccccccccscsscscccccccccccscccccccccccccccsscccsccscsccscccssccccscccccccccccccscccsccsccccccscccsccccccccccccscccccssccccscccccsscccccsccccccccccccscccsccccccsccscccsccccsccccccccccccscccccsccccccccccccsccccscccccccscscscccscscsccccsccscsccsscccccccccssccscsccscsccsccsscssscsssccssccsscscsccccccccccccccccccccccccsccssccccsccsccssccccccsscccccscccccc" />
    </g>
  </g>
</svg>
