<svg id="svg" xmlns="http://www.w3.org/2000/svg" xmlns:xlink="http://www.w3.org/1999/xlink" width="400" height="400" viewBox="0, 0, 400,400" version="1.1"><g id="svgg"><path id="path0" d="M32.240 0.954 C 25.067 2.452,19.619 4.970,19.103 7.025 C 18.227 10.514,21.096 11.219,27.174 9.008 C 33.219 6.809,47.194 7.176,55.020 9.739 C 66.202 13.400,74.163 18.786,68.458 18.829 C 67.649 18.836,64.715 19.933,61.936 21.268 C 41.874 30.910,41.087 58.632,60.556 69.928 C 75.294 78.479,89.840 92.810,106.522 115.213 C 107.518 116.551,110.114 119.953,112.291 122.772 C 115.906 127.455,135.078 153.108,143.841 164.985 C 145.833 167.687,154.802 179.849,163.772 192.014 C 182.435 217.326,189.478 226.850,204.710 247.376 C 210.688 255.432,217.047 264.066,218.841 266.562 C 220.634 269.059,223.749 273.283,225.762 275.949 C 227.776 278.615,235.417 288.949,242.743 298.913 C 250.068 308.877,259.811 322.083,264.393 328.261 C 268.975 334.438,274.892 342.428,277.542 346.014 C 280.192 349.601,287.072 358.895,292.831 366.667 C 298.590 374.438,306.374 384.976,310.130 390.083 C 317.321 399.864,318.631 401.340,317.187 398.036 C 316.345 396.110,295.050 354.226,280.790 326.449 C 277.107 319.275,268.958 303.297,262.681 290.942 C 256.404 278.587,247.929 261.957,243.847 253.986 C 236.889 240.395,229.730 226.349,205.435 178.623 C 193.631 155.434,195.266 157.580,190.890 159.528 C 178.589 165.002,160.469 156.991,148.033 140.580 C 125.448 110.775,106.717 73.216,104.485 53.261 C 100.672 19.159,65.836 -6.062,32.240 0.954 M358.696 2.618 C 333.011 7.332,313.355 26.890,308.040 53.021 C 303.488 75.404,290.428 101.762,268.966 131.884 C 248.158 161.087,228.612 171.966,213.133 162.959 C 211.788 162.176,210.607 161.630,210.509 161.746 C 209.704 162.701,204.348 172.753,204.348 173.309 C 204.348 174.829,225.040 214.451,225.725 214.242 C 226.571 213.983,228.818 211.237,257.246 175.714 C 293.883 129.935,308.123 112.987,320.290 100.685 C 330.240 90.624,338.105 84.488,346.716 80.065 C 367.427 69.428,369.188 43.242,350.000 31.212 C 346.037 28.728,338.048 26.526,334.501 26.940 L 331.899 27.243 336.783 22.675 C 350.141 10.179,354.172 8.365,368.841 8.253 C 382.009 8.153,381.159 8.296,381.159 6.176 C 381.159 2.069,370.708 0.414,358.696 2.618 M78.121 28.373 C 94.390 32.374,96.809 54.393,81.814 61.992 C 75.124 65.382,66.256 63.912,61.092 58.559 C 48.414 45.415,60.476 24.033,78.121 28.373 M344.471 38.994 C 350.442 42.227,353.634 47.773,353.607 54.868 C 353.536 73.702,328.997 79.578,319.936 62.930 C 311.433 47.307,328.704 30.458,344.471 38.994 M210.580 204.727 C 213.994 206.884,215.184 211.730,213.283 215.737 C 210.100 222.444,200.566 222.739,197.475 216.227 C 193.492 207.832,202.702 199.750,210.580 204.727 M178.747 218.297 C 177.826 219.804,176.287 222.506,172.658 228.986 C 156.451 257.918,129.632 305.699,125.883 312.319 C 120.302 322.173,113.420 334.445,102.924 353.261 C 96.254 365.217,88.751 378.587,86.251 382.971 C 76.072 400.818,75.451 402.505,82.292 393.720 C 84.658 390.682,89.141 385.063,92.254 381.235 C 95.367 377.407,98.555 373.460,99.338 372.464 C 100.121 371.467,104.095 366.515,108.171 361.459 C 112.246 356.403,117.227 350.207,119.241 347.691 C 121.255 345.175,132.978 330.562,145.293 315.217 C 157.608 299.873,169.113 285.525,170.861 283.333 C 175.744 277.207,188.815 260.965,195.481 252.740 C 198.775 248.676,201.383 245.145,201.278 244.893 C 200.738 243.601,180.720 216.745,180.270 216.709 C 179.981 216.686,179.295 217.400,178.747 218.297 " stroke="none" fill="#000000" fill-rule="evenodd"></path></g></svg>